STARTFONT 2.3
FONT -FontForge-Open Sans-Book-I-Normal-Sans--8-80-72-72-P-43-ISO10646-1
SIZE 8 72 72  2
FONTBOUNDINGBOX 14 11 -4 -2
COMMENT "Generated by fontforge, http://fontforge.sourceforge.net"
COMMENT "Digitized data copyright (c) 2010-2011, Google Corporation."
STARTPROPERTIES 42
FOUNDRY "FontForge"
FAMILY_NAME "Open Sans"
WEIGHT_NAME "Book"
SLANT "I"
SETWIDTH_NAME "Normal"
ADD_STYLE_NAME "Sans"
PIXEL_SIZE 8
POINT_SIZE 80
RESOLUTION_X 72
RESOLUTION_Y 72
SPACING "P"
AVERAGE_WIDTH 43
CHARSET_REGISTRY "ISO10646"
CHARSET_ENCODING "1"
FONTNAME_REGISTRY ""
CHARSET_COLLECTIONS "ISO8859-2 ISO8859-5 ISO8859-7 ISO8859-9 ISO8859-4 ISO10646-1"
BITS_PER_PIXEL 2
FONT_NAME "OpenSans-Italic"
FACE_NAME "Open Sans Italic"
COPYRIGHT "Digitized data copyright (c) 2010-2011, Google Corporation."
FONT_VERSION "1.10"
FONT_ASCENT 6
FONT_DESCENT 2
UNDERLINE_POSITION -1
UNDERLINE_THICKNESS 1
X_HEIGHT 4
CAP_HEIGHT 5
RAW_ASCENT 799
RAW_DESCENT 200
ITALIC_ANGLE 4992
NORM_SPACE 2
RELATIVE_WEIGHT 40
RELATIVE_SETWIDTH 50
SUPERSCRIPT_X 0
SUPERSCRIPT_Y 3
SUPERSCRIPT_SIZE 5
SUBSCRIPT_X 0
SUBSCRIPT_Y 1
SUBSCRIPT_SIZE 5
FIGURE_WIDTH 4
AVG_LOWERCASE_WIDTH 43
AVG_UPPERCASE_WIDTH 48
ENDPROPERTIES
CHARS 936
STARTCHAR space
ENCODING 32
SWIDTH 259 0
DWIDTH 2 0
BBX 1 1 0 0
BITMAP
00
ENDCHAR
STARTCHAR exclam
ENCODING 33
SWIDTH 258 0
DWIDTH 2 0
BBX 2 6 0 0
BITMAP
20
20
20
50
00
80
ENDCHAR
STARTCHAR quotedbl
ENCODING 34
SWIDTH 386 0
DWIDTH 3 0
BBX 2 2 1 4
BITMAP
50
A0
ENDCHAR
STARTCHAR numbersign
ENCODING 35
SWIDTH 645 0
DWIDTH 5 0
BBX 5 6 0 0
BITMAP
0440
0940
2A40
2600
6640
1500
ENDCHAR
STARTCHAR dollar
ENCODING 36
SWIDTH 550 0
DWIDTH 4 0
BBX 4 7 0 -1
BITMAP
09
29
28
09
16
64
10
ENDCHAR
STARTCHAR percent
ENCODING 37
SWIDTH 792 0
DWIDTH 6 0
BBX 6 6 0 0
BITMAP
1810
1480
5950
2960
0920
2190
ENDCHAR
STARTCHAR ampersand
ENCODING 38
SWIDTH 669 0
DWIDTH 5 0
BBX 5 6 0 0
BITMAP
0A00
2200
1900
6840
8240
6A40
ENDCHAR
STARTCHAR quotesingle
ENCODING 39
SWIDTH 216 0
DWIDTH 2 0
BBX 1 2 1 4
BITMAP
40
80
ENDCHAR
STARTCHAR parenleft
ENCODING 40
SWIDTH 285 0
DWIDTH 2 0
BBX 3 7 0 -1
BITMAP
04
20
50
40
80
80
50
ENDCHAR
STARTCHAR parenright
ENCODING 41
SWIDTH 285 0
DWIDTH 2 0
BBX 2 7 0 -1
BITMAP
10
20
20
20
20
50
80
ENDCHAR
STARTCHAR asterisk
ENCODING 42
SWIDTH 551 0
DWIDTH 4 0
BBX 4 4 1 2
BITMAP
14
65
64
04
ENDCHAR
STARTCHAR plus
ENCODING 43
SWIDTH 550 0
DWIDTH 4 0
BBX 4 4 0 1
BITMAP
04
08
59
08
ENDCHAR
STARTCHAR comma
ENCODING 44
SWIDTH 240 0
DWIDTH 2 0
BBX 2 2 -1 -1
BITMAP
20
50
ENDCHAR
STARTCHAR hyphen
ENCODING 45
SWIDTH 312 0
DWIDTH 3 0
BBX 2 2 0 1
BITMAP
50
10
ENDCHAR
STARTCHAR period
ENCODING 46
SWIDTH 252 0
DWIDTH 2 0
BBX 1 1 0 0
BITMAP
80
ENDCHAR
STARTCHAR slash
ENCODING 47
SWIDTH 350 0
DWIDTH 3 0
BBX 4 6 0 0
BITMAP
05
08
14
20
80
80
ENDCHAR
STARTCHAR zero
ENCODING 48
SWIDTH 550 0
DWIDTH 4 0
BBX 5 6 0 0
BITMAP
1A00
2140
5140
5200
5200
6900
ENDCHAR
STARTCHAR one
ENCODING 49
SWIDTH 550 0
DWIDTH 4 0
BBX 3 6 1 0
BITMAP
14
64
20
20
20
50
ENDCHAR
STARTCHAR two
ENCODING 50
SWIDTH 550 0
DWIDTH 4 0
BBX 5 6 0 0
BITMAP
1A00
0240
0200
0900
2000
A900
ENDCHAR
STARTCHAR three
ENCODING 51
SWIDTH 550 0
DWIDTH 4 0
BBX 4 6 0 0
BITMAP
1A
02
06
15
02
69
ENDCHAR
STARTCHAR four
ENCODING 52
SWIDTH 550 0
DWIDTH 4 0
BBX 4 6 0 0
BITMAP
02
0A
16
52
AA
08
ENDCHAR
STARTCHAR five
ENCODING 53
SWIDTH 550 0
DWIDTH 4 0
BBX 4 6 0 0
BITMAP
1A
20
24
02
02
69
ENDCHAR
STARTCHAR six
ENCODING 54
SWIDTH 550 0
DWIDTH 4 0
BBX 5 6 0 0
BITMAP
0A40
2000
2900
6200
5200
2900
ENDCHAR
STARTCHAR seven
ENCODING 55
SWIDTH 550 0
DWIDTH 4 0
BBX 4 6 1 0
BITMAP
A9
08
14
20
50
80
ENDCHAR
STARTCHAR eight
ENCODING 56
SWIDTH 550 0
DWIDTH 4 0
BBX 5 6 0 0
BITMAP
1A00
2140
1600
2500
8200
6900
ENDCHAR
STARTCHAR nine
ENCODING 57
SWIDTH 550 0
DWIDTH 4 0
BBX 4 6 0 0
BITMAP
19
22
52
2A
02
68
ENDCHAR
STARTCHAR colon
ENCODING 58
SWIDTH 252 0
DWIDTH 2 0
BBX 2 5 0 0
BITMAP
10
10
00
00
80
ENDCHAR
STARTCHAR semicolon
ENCODING 59
SWIDTH 252 0
DWIDTH 2 0
BBX 3 6 -1 -1
BITMAP
04
04
00
00
20
50
ENDCHAR
STARTCHAR less
ENCODING 60
SWIDTH 550 0
DWIDTH 4 0
BBX 4 4 0 1
BITMAP
01
14
64
06
ENDCHAR
STARTCHAR equal
ENCODING 61
SWIDTH 550 0
DWIDTH 4 0
BBX 4 3 0 1
BITMAP
6A
15
15
ENDCHAR
STARTCHAR greater
ENCODING 62
SWIDTH 550 0
DWIDTH 4 0
BBX 4 4 0 1
BITMAP
50
19
06
60
ENDCHAR
STARTCHAR question
ENCODING 63
SWIDTH 426 0
DWIDTH 3 0
BBX 4 6 0 0
BITMAP
29
02
09
14
10
50
ENDCHAR
STARTCHAR at
ENCODING 64
SWIDTH 847 0
DWIDTH 7 0
BBX 7 7 0 -1
BITMAP
0590
1414
5588
4884
49A0
6000
1A40
ENDCHAR
STARTCHAR A
ENCODING 65
SWIDTH 555 0
DWIDTH 4 0
BBX 5 6 -1 0
BITMAP
0140
0240
0980
0980
2580
6080
ENDCHAR
STARTCHAR B
ENCODING 66
SWIDTH 598 0
DWIDTH 5 0
BBX 5 6 0 0
BITMAP
1A40
2080
2540
2600
5140
AA00
ENDCHAR
STARTCHAR C
ENCODING 67
SWIDTH 584 0
DWIDTH 5 0
BBX 5 6 0 0
BITMAP
0A80
2400
2000
5000
5000
2A00
ENDCHAR
STARTCHAR D
ENCODING 68
SWIDTH 666 0
DWIDTH 5 0
BBX 5 6 0 0
BITMAP
1A00
2080
2080
2080
5180
AA00
ENDCHAR
STARTCHAR E
ENCODING 69
SWIDTH 511 0
DWIDTH 4 0
BBX 5 6 0 0
BITMAP
1A40
2000
2500
2500
5000
A800
ENDCHAR
STARTCHAR F
ENCODING 70
SWIDTH 472 0
DWIDTH 4 0
BBX 5 6 0 0
BITMAP
1A40
2000
2000
2900
5000
8000
ENDCHAR
STARTCHAR G
ENCODING 71
SWIDTH 676 0
DWIDTH 5 0
BBX 5 6 0 0
BITMAP
0A80
2400
2000
5280
5080
2A40
ENDCHAR
STARTCHAR H
ENCODING 72
SWIDTH 678 0
DWIDTH 5 0
BBX 6 6 0 0
BITMAP
1050
2050
2580
2580
5080
8140
ENDCHAR
STARTCHAR I
ENCODING 73
SWIDTH 272 0
DWIDTH 2 0
BBX 2 6 0 0
BITMAP
10
20
20
20
50
80
ENDCHAR
STARTCHAR J
ENCODING 74
SWIDTH 267 0
DWIDTH 2 0
BBX 3 8 -1 -2
BITMAP
04
08
08
08
14
20
60
40
ENDCHAR
STARTCHAR K
ENCODING 75
SWIDTH 557 0
DWIDTH 4 0
BBX 5 6 0 0
BITMAP
1080
2200
2800
2800
5500
8200
ENDCHAR
STARTCHAR L
ENCODING 76
SWIDTH 474 0
DWIDTH 4 0
BBX 3 6 0 0
BITMAP
10
20
20
20
50
A8
ENDCHAR
STARTCHAR M
ENCODING 77
SWIDTH 836 0
DWIDTH 7 0
BBX 7 6 0 0
BITMAP
1414
2824
2864
1860
5A20
8520
ENDCHAR
STARTCHAR N
ENCODING 78
SWIDTH 702 0
DWIDTH 6 0
BBX 6 6 0 0
BITMAP
1410
2850
2850
2580
5280
8180
ENDCHAR
STARTCHAR O
ENCODING 79
SWIDTH 720 0
DWIDTH 6 0
BBX 6 6 0 0
BITMAP
0A40
2050
6050
5050
5080
2A40
ENDCHAR
STARTCHAR P
ENCODING 80
SWIDTH 565 0
DWIDTH 5 0
BBX 5 6 0 0
BITMAP
1A00
2140
2140
2900
5000
8000
ENDCHAR
STARTCHAR Q
ENCODING 81
SWIDTH 720 0
DWIDTH 6 0
BBX 6 7 0 -1
BITMAP
0A40
2050
6050
5050
5080
2A40
0200
ENDCHAR
STARTCHAR R
ENCODING 82
SWIDTH 568 0
DWIDTH 5 0
BBX 5 6 0 0
BITMAP
1A00
2140
2140
2900
5500
8200
ENDCHAR
STARTCHAR S
ENCODING 83
SWIDTH 501 0
DWIDTH 4 0
BBX 4 6 0 0
BITMAP
1A
20
20
09
06
A8
ENDCHAR
STARTCHAR T
ENCODING 84
SWIDTH 498 0
DWIDTH 4 0
BBX 4 6 1 0
BITMAP
A9
20
20
50
50
80
ENDCHAR
STARTCHAR U
ENCODING 85
SWIDTH 675 0
DWIDTH 5 0
BBX 6 6 0 0
BITMAP
1050
2050
2080
5080
5080
2A00
ENDCHAR
STARTCHAR V
ENCODING 86
SWIDTH 547 0
DWIDTH 4 0
BBX 4 6 1 0
BITMAP
42
85
88
94
A0
90
ENDCHAR
STARTCHAR W
ENCODING 87
SWIDTH 852 0
DWIDTH 7 0
BBX 7 6 1 0
BITMAP
4514
8A20
9650
A280
9280
C200
ENDCHAR
STARTCHAR X
ENCODING 88
SWIDTH 519 0
DWIDTH 4 0
BBX 5 6 0 0
BITMAP
1040
2200
1800
1800
5500
8200
ENDCHAR
STARTCHAR Y
ENCODING 89
SWIDTH 502 0
DWIDTH 4 0
BBX 4 6 1 0
BITMAP
41
88
94
60
50
80
ENDCHAR
STARTCHAR Z
ENCODING 90
SWIDTH 530 0
DWIDTH 4 0
BBX 5 6 0 0
BITMAP
2A40
0200
0900
1400
6000
E900
ENDCHAR
STARTCHAR bracketleft
ENCODING 91
SWIDTH 286 0
DWIDTH 2 0
BBX 3 8 0 -2
BITMAP
14
20
20
50
40
80
80
40
ENDCHAR
STARTCHAR backslash
ENCODING 92
SWIDTH 350 0
DWIDTH 3 0
BBX 2 6 1 0
BITMAP
40
80
80
80
80
50
ENDCHAR
STARTCHAR bracketright
ENCODING 93
SWIDTH 286 0
DWIDTH 2 0
BBX 3 8 0 -2
BITMAP
24
10
20
20
20
50
80
40
ENDCHAR
STARTCHAR asciicircum
ENCODING 94
SWIDTH 517 0
DWIDTH 4 0
BBX 4 4 0 2
BITMAP
08
15
22
41
ENDCHAR
STARTCHAR underscore
ENCODING 95
SWIDTH 394 0
DWIDTH 3 0
BBX 3 2 -1 -2
BITMAP
54
54
ENDCHAR
STARTCHAR grave
ENCODING 96
SWIDTH 554 0
DWIDTH 4 0
BBX 2 1 2 5
BITMAP
50
ENDCHAR
STARTCHAR a
ENCODING 97
SWIDTH 564 0
DWIDTH 5 0
BBX 5 5 0 0
BITMAP
0400
2640
5200
8200
6600
ENDCHAR
STARTCHAR b
ENCODING 98
SWIDTH 577 0
DWIDTH 5 0
BBX 5 6 0 0
BITMAP
2000
2500
3600
6240
5200
A900
ENDCHAR
STARTCHAR c
ENCODING 99
SWIDTH 450 0
DWIDTH 4 0
BBX 4 5 0 0
BITMAP
04
25
50
80
68
ENDCHAR
STARTCHAR d
ENCODING 100
SWIDTH 577 0
DWIDTH 5 0
BBX 5 6 0 0
BITMAP
0080
0540
2640
5200
8200
6600
ENDCHAR
STARTCHAR e
ENCODING 101
SWIDTH 493 0
DWIDTH 4 0
BBX 4 5 0 0
BITMAP
04
26
69
90
68
ENDCHAR
STARTCHAR f
ENCODING 102
SWIDTH 312 0
DWIDTH 3 0
BBX 5 8 -1 -2
BITMAP
0640
0900
0800
0800
1400
2000
2000
9000
ENDCHAR
STARTCHAR g
ENCODING 103
SWIDTH 500 0
DWIDTH 4 0
BBX 5 7 -1 -2
BITMAP
0140
1980
1540
1900
2A00
5140
6A00
ENDCHAR
STARTCHAR h
ENCODING 104
SWIDTH 577 0
DWIDTH 5 0
BBX 4 6 0 0
BITMAP
20
25
36
62
52
82
ENDCHAR
STARTCHAR i
ENCODING 105
SWIDTH 253 0
DWIDTH 2 0
BBX 2 6 0 0
BITMAP
10
10
20
50
50
80
ENDCHAR
STARTCHAR j
ENCODING 106
SWIDTH 253 0
DWIDTH 2 0
BBX 3 8 -1 -2
BITMAP
04
04
08
14
14
20
20
90
ENDCHAR
STARTCHAR k
ENCODING 107
SWIDTH 487 0
DWIDTH 4 0
BBX 4 6 0 0
BITMAP
20
21
25
64
58
89
ENDCHAR
STARTCHAR l
ENCODING 108
SWIDTH 253 0
DWIDTH 2 0
BBX 2 6 0 0
BITMAP
20
20
20
50
50
80
ENDCHAR
STARTCHAR m
ENCODING 109
SWIDTH 872 0
DWIDTH 7 0
BBX 7 5 0 0
BITMAP
0410
2654
6214
5214
8520
ENDCHAR
STARTCHAR n
ENCODING 110
SWIDTH 577 0
DWIDTH 5 0
BBX 4 5 0 0
BITMAP
05
26
62
52
82
ENDCHAR
STARTCHAR o
ENCODING 111
SWIDTH 561 0
DWIDTH 4 0
BBX 4 5 0 0
BITMAP
04
26
52
82
69
ENDCHAR
STARTCHAR p
ENCODING 112
SWIDTH 577 0
DWIDTH 5 0
BBX 5 7 0 -2
BITMAP
0500
2600
6240
5200
A900
8000
8000
ENDCHAR
STARTCHAR q
ENCODING 113
SWIDTH 577 0
DWIDTH 5 0
BBX 5 7 0 -2
BITMAP
0400
2640
5200
8200
6A00
0500
0400
ENDCHAR
STARTCHAR r
ENCODING 114
SWIDTH 395 0
DWIDTH 3 0
BBX 3 5 0 0
BITMAP
04
24
60
50
80
ENDCHAR
STARTCHAR s
ENCODING 115
SWIDTH 428 0
DWIDTH 3 0
BBX 3 5 0 0
BITMAP
14
64
60
08
A8
ENDCHAR
STARTCHAR t
ENCODING 116
SWIDTH 324 0
DWIDTH 3 0
BBX 3 5 0 0
BITMAP
24
64
50
50
60
ENDCHAR
STARTCHAR u
ENCODING 117
SWIDTH 577 0
DWIDTH 5 0
BBX 5 5 0 0
BITMAP
1000
2140
5200
5200
6A00
ENDCHAR
STARTCHAR v
ENCODING 118
SWIDTH 461 0
DWIDTH 4 0
BBX 4 5 0 0
BITMAP
01
82
58
58
70
ENDCHAR
STARTCHAR w
ENCODING 119
SWIDTH 716 0
DWIDTH 6 0
BBX 6 5 0 0
BITMAP
0010
8620
5A50
6280
6240
ENDCHAR
STARTCHAR x
ENCODING 120
SWIDTH 478 0
DWIDTH 4 0
BBX 4 5 0 0
BITMAP
01
25
28
28
88
ENDCHAR
STARTCHAR y
ENCODING 121
SWIDTH 461 0
DWIDTH 4 0
BBX 5 7 -1 -2
BITMAP
0040
1080
1600
1A00
0C00
1400
6000
ENDCHAR
STARTCHAR z
ENCODING 122
SWIDTH 443 0
DWIDTH 4 0
BBX 4 5 0 0
BITMAP
14
19
14
60
D4
ENDCHAR
STARTCHAR braceleft
ENCODING 123
SWIDTH 349 0
DWIDTH 3 0
BBX 3 8 0 -2
BITMAP
08
14
20
90
50
50
50
10
ENDCHAR
STARTCHAR bar
ENCODING 124
SWIDTH 550 0
DWIDTH 4 0
BBX 1 8 2 -2
BITMAP
80
80
80
80
80
80
80
80
ENDCHAR
STARTCHAR braceright
ENCODING 125
SWIDTH 349 0
DWIDTH 3 0
BBX 3 7 0 -1
BITMAP
20
14
20
14
20
50
80
ENDCHAR
STARTCHAR asciitilde
ENCODING 126
SWIDTH 550 0
DWIDTH 4 0
BBX 4 2 0 2
BITMAP
10
5A
ENDCHAR
STARTCHAR nonbreakingspace
ENCODING 160
SWIDTH 259 0
DWIDTH 2 0
BBX 1 1 0 0
BITMAP
00
ENDCHAR
STARTCHAR exclamdown
ENCODING 161
SWIDTH 258 0
DWIDTH 2 0
BBX 2 7 0 -2
BITMAP
10
20
10
50
80
80
40
ENDCHAR
STARTCHAR cent
ENCODING 162
SWIDTH 550 0
DWIDTH 4 0
BBX 3 6 1 0
BITMAP
04
64
80
80
94
60
ENDCHAR
STARTCHAR sterling
ENCODING 163
SWIDTH 550 0
DWIDTH 4 0
BBX 5 6 0 0
BITMAP
0A40
1400
2000
6400
2000
A900
ENDCHAR
STARTCHAR currency
ENCODING 164
SWIDTH 550 0
DWIDTH 4 0
BBX 3 4 1 1
BITMAP
54
98
88
A8
ENDCHAR
STARTCHAR yen
ENCODING 165
SWIDTH 550 0
DWIDTH 4 0
BBX 5 6 0 0
BITMAP
1040
2200
1500
2D00
6900
1000
ENDCHAR
STARTCHAR brokenbar
ENCODING 166
SWIDTH 550 0
DWIDTH 4 0
BBX 1 8 2 -2
BITMAP
80
80
80
00
00
80
80
80
ENDCHAR
STARTCHAR section
ENCODING 167
SWIDTH 485 0
DWIDTH 4 0
BBX 4 6 0 0
BITMAP
25
24
15
25
08
68
ENDCHAR
STARTCHAR dieresis
ENCODING 168
SWIDTH 554 0
DWIDTH 4 0
BBX 2 1 2 5
BITMAP
50
ENDCHAR
STARTCHAR copyright
ENCODING 169
SWIDTH 832 0
DWIDTH 7 0
BBX 7 6 0 0
BITMAP
0540
2660
4804
4804
1650
1550
ENDCHAR
STARTCHAR ordfeminine
ENCODING 170
SWIDTH 334 0
DWIDTH 3 0
BBX 3 3 0 3
BITMAP
18
54
54
ENDCHAR
STARTCHAR guillemotleft
ENCODING 171
SWIDTH 467 0
DWIDTH 4 0
BBX 4 4 0 0
BITMAP
11
58
58
14
ENDCHAR
STARTCHAR logicalnot
ENCODING 172
SWIDTH 550 0
DWIDTH 4 0
BBX 4 2 0 1
BITMAP
56
01
ENDCHAR
STARTCHAR uni00AD
ENCODING 173
SWIDTH 312 0
DWIDTH 3 0
BBX 2 2 0 1
BITMAP
50
10
ENDCHAR
STARTCHAR registered
ENCODING 174
SWIDTH 832 0
DWIDTH 7 0
BBX 7 6 0 0
BITMAP
0540
2660
4484
4644
1450
1550
ENDCHAR
STARTCHAR overscore
ENCODING 175
SWIDTH 381 0
DWIDTH 3 0
BBX 3 1 1 6
BITMAP
A8
ENDCHAR
STARTCHAR degree
ENCODING 176
SWIDTH 428 0
DWIDTH 3 0
BBX 3 3 1 3
BITMAP
50
54
50
ENDCHAR
STARTCHAR plusminus
ENCODING 177
SWIDTH 550 0
DWIDTH 4 0
BBX 4 5 0 0
BITMAP
04
08
59
08
6A
ENDCHAR
STARTCHAR twosuperior
ENCODING 178
SWIDTH 350 0
DWIDTH 3 0
BBX 3 4 0 2
BITMAP
14
08
10
64
ENDCHAR
STARTCHAR threesuperior
ENCODING 179
SWIDTH 350 0
DWIDTH 3 0
BBX 3 4 0 2
BITMAP
14
14
08
54
ENDCHAR
STARTCHAR acute
ENCODING 180
SWIDTH 554 0
DWIDTH 4 0
BBX 2 1 2 5
BITMAP
50
ENDCHAR
STARTCHAR mu
ENCODING 181
SWIDTH 583 0
DWIDTH 5 0
BBX 5 7 0 -2
BITMAP
1000
2140
5200
5200
A600
8000
8000
ENDCHAR
STARTCHAR paragraph
ENCODING 182
SWIDTH 654 0
DWIDTH 5 0
BBX 4 7 1 -1
BITMAP
BA
F5
F5
B5
05
05
05
ENDCHAR
STARTCHAR periodcentered
ENCODING 183
SWIDTH 252 0
DWIDTH 2 0
BBX 2 2 0 2
BITMAP
10
50
ENDCHAR
STARTCHAR cedilla
ENCODING 184
SWIDTH 205 0
DWIDTH 2 0
BBX 2 2 -1 -2
BITMAP
10
50
ENDCHAR
STARTCHAR onesuperior
ENCODING 185
SWIDTH 350 0
DWIDTH 3 0
BBX 2 4 1 2
BITMAP
50
50
40
40
ENDCHAR
STARTCHAR ordmasculine
ENCODING 186
SWIDTH 335 0
DWIDTH 3 0
BBX 3 3 0 3
BITMAP
14
54
14
ENDCHAR
STARTCHAR guillemotright
ENCODING 187
SWIDTH 467 0
DWIDTH 4 0
BBX 3 4 0 0
BITMAP
44
24
58
40
ENDCHAR
STARTCHAR onequarter
ENCODING 188
SWIDTH 741 0
DWIDTH 6 0
BBX 5 6 0 0
BITMAP
1440
2140
2240
1980
1680
5180
ENDCHAR
STARTCHAR onehalf
ENCODING 189
SWIDTH 741 0
DWIDTH 6 0
BBX 6 6 0 0
BITMAP
2040
2140
2540
1820
2040
5280
ENDCHAR
STARTCHAR threequarters
ENCODING 190
SWIDTH 764 0
DWIDTH 6 0
BBX 6 6 0 0
BITMAP
1410
1480
1550
5560
09A0
1050
ENDCHAR
STARTCHAR questiondown
ENCODING 191
SWIDTH 426 0
DWIDTH 3 0
BBX 3 7 0 -2
BITMAP
04
08
04
20
80
80
64
ENDCHAR
STARTCHAR Agrave
ENCODING 192
SWIDTH 555 0
DWIDTH 4 0
BBX 5 8 -1 0
BITMAP
0100
0140
0140
0240
0980
0980
2580
6080
ENDCHAR
STARTCHAR Aacute
ENCODING 193
SWIDTH 555 0
DWIDTH 4 0
BBX 5 8 -1 0
BITMAP
0040
0040
0140
0240
0980
0980
2580
6080
ENDCHAR
STARTCHAR Acircumflex
ENCODING 194
SWIDTH 555 0
DWIDTH 4 0
BBX 5 8 -1 0
BITMAP
0040
0140
0140
0240
0980
0980
2580
6080
ENDCHAR
STARTCHAR Atilde
ENCODING 195
SWIDTH 555 0
DWIDTH 4 0
BBX 6 7 -1 0
BITMAP
0290
0140
0240
0980
0980
2580
6080
ENDCHAR
STARTCHAR Adieresis
ENCODING 196
SWIDTH 555 0
DWIDTH 4 0
BBX 5 7 -1 0
BITMAP
0140
0140
0240
0980
0980
2580
6080
ENDCHAR
STARTCHAR Aring
ENCODING 197
SWIDTH 555 0
DWIDTH 4 0
BBX 5 7 -1 0
BITMAP
0140
0280
0240
0980
0980
2580
6080
ENDCHAR
STARTCHAR AE
ENCODING 198
SWIDTH 816 0
DWIDTH 7 0
BBX 8 6 -1 0
BITMAP
00A9
0250
0654
0994
2580
60E4
ENDCHAR
STARTCHAR Ccedilla
ENCODING 199
SWIDTH 584 0
DWIDTH 5 0
BBX 5 8 0 -2
BITMAP
0A80
2400
2000
5000
5000
2A00
0800
1800
ENDCHAR
STARTCHAR Egrave
ENCODING 200
SWIDTH 511 0
DWIDTH 4 0
BBX 5 8 0 0
BITMAP
0400
0500
1A40
2000
2500
2500
5000
A800
ENDCHAR
STARTCHAR Eacute
ENCODING 201
SWIDTH 511 0
DWIDTH 4 0
BBX 5 8 0 0
BITMAP
0100
0100
1A40
2000
2500
2500
5000
A800
ENDCHAR
STARTCHAR Ecircumflex
ENCODING 202
SWIDTH 511 0
DWIDTH 4 0
BBX 5 8 0 0
BITMAP
0100
0500
1A40
2000
2500
2500
5000
A800
ENDCHAR
STARTCHAR Edieresis
ENCODING 203
SWIDTH 511 0
DWIDTH 4 0
BBX 5 7 0 0
BITMAP
0500
1A40
2000
2500
2500
5000
A800
ENDCHAR
STARTCHAR Igrave
ENCODING 204
SWIDTH 272 0
DWIDTH 2 0
BBX 2 8 0 0
BITMAP
10
10
10
20
20
20
50
80
ENDCHAR
STARTCHAR Iacute
ENCODING 205
SWIDTH 272 0
DWIDTH 2 0
BBX 3 8 0 0
BITMAP
04
04
10
20
20
20
50
80
ENDCHAR
STARTCHAR Icircumflex
ENCODING 206
SWIDTH 272 0
DWIDTH 2 0
BBX 3 8 0 0
BITMAP
04
14
10
20
20
20
50
80
ENDCHAR
STARTCHAR Idieresis
ENCODING 207
SWIDTH 272 0
DWIDTH 2 0
BBX 3 7 0 0
BITMAP
14
10
20
20
20
50
80
ENDCHAR
STARTCHAR Eth
ENCODING 208
SWIDTH 666 0
DWIDTH 5 0
BBX 5 6 0 0
BITMAP
1A00
2080
2080
6480
5180
AA00
ENDCHAR
STARTCHAR Ntilde
ENCODING 209
SWIDTH 702 0
DWIDTH 6 0
BBX 6 7 0 0
BITMAP
0680
1410
2850
2850
2580
5280
8180
ENDCHAR
STARTCHAR Ograve
ENCODING 210
SWIDTH 720 0
DWIDTH 6 0
BBX 6 8 0 0
BITMAP
0100
0100
0A40
2050
6050
5050
5080
2A40
ENDCHAR
STARTCHAR Oacute
ENCODING 211
SWIDTH 720 0
DWIDTH 6 0
BBX 6 8 0 0
BITMAP
0040
0100
0A40
2050
6050
5050
5080
2A40
ENDCHAR
STARTCHAR Ocircumflex
ENCODING 212
SWIDTH 720 0
DWIDTH 6 0
BBX 6 8 0 0
BITMAP
0100
0540
0A40
2050
6050
5050
5080
2A40
ENDCHAR
STARTCHAR Otilde
ENCODING 213
SWIDTH 720 0
DWIDTH 6 0
BBX 6 7 0 0
BITMAP
0640
0A40
2050
6050
5050
5080
2A40
ENDCHAR
STARTCHAR Odieresis
ENCODING 214
SWIDTH 720 0
DWIDTH 6 0
BBX 6 7 0 0
BITMAP
0440
0A40
2050
6050
5050
5080
2A40
ENDCHAR
STARTCHAR multiply
ENCODING 215
SWIDTH 550 0
DWIDTH 4 0
BBX 3 4 1 1
BITMAP
04
94
60
44
ENDCHAR
STARTCHAR Oslash
ENCODING 216
SWIDTH 720 0
DWIDTH 6 0
BBX 6 6 0 0
BITMAP
0A90
20D0
6250
5950
6480
7A40
ENDCHAR
STARTCHAR Ugrave
ENCODING 217
SWIDTH 675 0
DWIDTH 5 0
BBX 6 8 0 0
BITMAP
0100
0100
1050
2050
2080
5080
5080
2A00
ENDCHAR
STARTCHAR Uacute
ENCODING 218
SWIDTH 675 0
DWIDTH 5 0
BBX 6 8 0 0
BITMAP
0040
0100
1050
2050
2080
5080
5080
2A00
ENDCHAR
STARTCHAR Ucircumflex
ENCODING 219
SWIDTH 675 0
DWIDTH 5 0
BBX 6 8 0 0
BITMAP
0100
0540
1050
2050
2080
5080
5080
2A00
ENDCHAR
STARTCHAR Udieresis
ENCODING 220
SWIDTH 675 0
DWIDTH 5 0
BBX 6 7 0 0
BITMAP
0440
1050
2050
2080
5080
5080
2A00
ENDCHAR
STARTCHAR Yacute
ENCODING 221
SWIDTH 502 0
DWIDTH 4 0
BBX 4 8 1 0
BITMAP
04
14
41
88
94
60
50
80
ENDCHAR
STARTCHAR Thorn
ENCODING 222
SWIDTH 565 0
DWIDTH 5 0
BBX 5 6 0 0
BITMAP
1000
2A00
2140
2200
6900
8000
ENDCHAR
STARTCHAR germandbls
ENCODING 223
SWIDTH 577 0
DWIDTH 5 0
BBX 6 8 -1 -2
BITMAP
0690
0880
0A40
1540
1480
2680
2000
9000
ENDCHAR
STARTCHAR agrave
ENCODING 224
SWIDTH 564 0
DWIDTH 5 0
BBX 5 6 0 0
BITMAP
0800
0400
2640
5200
8200
6600
ENDCHAR
STARTCHAR aacute
ENCODING 225
SWIDTH 564 0
DWIDTH 5 0
BBX 5 6 0 0
BITMAP
0500
0400
2640
5200
8200
6600
ENDCHAR
STARTCHAR acircumflex
ENCODING 226
SWIDTH 564 0
DWIDTH 5 0
BBX 5 6 0 0
BITMAP
0A00
0400
2640
5200
8200
6600
ENDCHAR
STARTCHAR atilde
ENCODING 227
SWIDTH 564 0
DWIDTH 5 0
BBX 5 6 0 0
BITMAP
1A00
0400
2640
5200
8200
6600
ENDCHAR
STARTCHAR adieresis
ENCODING 228
SWIDTH 564 0
DWIDTH 5 0
BBX 5 6 0 0
BITMAP
0500
0400
2640
5200
8200
6600
ENDCHAR
STARTCHAR aring
ENCODING 229
SWIDTH 564 0
DWIDTH 5 0
BBX 5 7 0 0
BITMAP
0500
0900
0400
2640
5200
8200
6600
ENDCHAR
STARTCHAR ae
ENCODING 230
SWIDTH 814 0
DWIDTH 7 0
BBX 7 5 0 0
BITMAP
0410
2764
5360
8600
6A90
ENDCHAR
STARTCHAR ccedilla
ENCODING 231
SWIDTH 450 0
DWIDTH 4 0
BBX 4 7 0 -2
BITMAP
04
25
50
80
68
20
20
ENDCHAR
STARTCHAR egrave
ENCODING 232
SWIDTH 493 0
DWIDTH 4 0
BBX 4 6 0 0
BITMAP
08
04
26
69
90
68
ENDCHAR
STARTCHAR eacute
ENCODING 233
SWIDTH 493 0
DWIDTH 4 0
BBX 4 6 0 0
BITMAP
05
04
26
69
90
68
ENDCHAR
STARTCHAR ecircumflex
ENCODING 234
SWIDTH 493 0
DWIDTH 4 0
BBX 4 6 0 0
BITMAP
09
04
26
69
90
68
ENDCHAR
STARTCHAR edieresis
ENCODING 235
SWIDTH 493 0
DWIDTH 4 0
BBX 4 6 0 0
BITMAP
15
04
26
69
90
68
ENDCHAR
STARTCHAR igrave
ENCODING 236
SWIDTH 253 0
DWIDTH 2 0
BBX 2 6 0 0
BITMAP
20
10
20
50
50
80
ENDCHAR
STARTCHAR iacute
ENCODING 237
SWIDTH 253 0
DWIDTH 2 0
BBX 3 6 0 0
BITMAP
14
10
20
50
50
80
ENDCHAR
STARTCHAR icircumflex
ENCODING 238
SWIDTH 253 0
DWIDTH 2 0
BBX 3 6 0 0
BITMAP
24
10
20
50
50
80
ENDCHAR
STARTCHAR idieresis
ENCODING 239
SWIDTH 253 0
DWIDTH 2 0
BBX 3 6 0 0
BITMAP
54
10
20
50
50
80
ENDCHAR
STARTCHAR eth
ENCODING 240
SWIDTH 568 0
DWIDTH 5 0
BBX 4 6 0 0
BITMAP
0A
06
1A
52
82
69
ENDCHAR
STARTCHAR ntilde
ENCODING 241
SWIDTH 577 0
DWIDTH 5 0
BBX 4 6 0 0
BITMAP
1A
15
26
62
52
82
ENDCHAR
STARTCHAR ograve
ENCODING 242
SWIDTH 561 0
DWIDTH 4 0
BBX 4 6 0 0
BITMAP
08
04
26
52
82
69
ENDCHAR
STARTCHAR oacute
ENCODING 243
SWIDTH 561 0
DWIDTH 4 0
BBX 4 6 0 0
BITMAP
05
04
26
52
82
69
ENDCHAR
STARTCHAR ocircumflex
ENCODING 244
SWIDTH 561 0
DWIDTH 4 0
BBX 4 6 0 0
BITMAP
0A
04
26
52
82
69
ENDCHAR
STARTCHAR otilde
ENCODING 245
SWIDTH 561 0
DWIDTH 4 0
BBX 4 6 0 0
BITMAP
1A
04
26
52
82
69
ENDCHAR
STARTCHAR odieresis
ENCODING 246
SWIDTH 561 0
DWIDTH 4 0
BBX 4 6 0 0
BITMAP
05
04
26
52
82
69
ENDCHAR
STARTCHAR divide
ENCODING 247
SWIDTH 550 0
DWIDTH 4 0
BBX 4 4 0 1
BITMAP
04
04
55
08
ENDCHAR
STARTCHAR oslash
ENCODING 248
SWIDTH 561 0
DWIDTH 4 0
BBX 4 5 0 0
BITMAP
05
27
5A
A2
69
ENDCHAR
STARTCHAR ugrave
ENCODING 249
SWIDTH 577 0
DWIDTH 5 0
BBX 5 6 0 0
BITMAP
0800
1000
2140
5200
5200
6A00
ENDCHAR
STARTCHAR uacute
ENCODING 250
SWIDTH 577 0
DWIDTH 5 0
BBX 5 6 0 0
BITMAP
0200
1000
2140
5200
5200
6A00
ENDCHAR
STARTCHAR ucircumflex
ENCODING 251
SWIDTH 577 0
DWIDTH 5 0
BBX 5 6 0 0
BITMAP
0A00
1000
2140
5200
5200
6A00
ENDCHAR
STARTCHAR udieresis
ENCODING 252
SWIDTH 577 0
DWIDTH 5 0
BBX 5 6 0 0
BITMAP
0500
1000
2140
5200
5200
6A00
ENDCHAR
STARTCHAR yacute
ENCODING 253
SWIDTH 461 0
DWIDTH 4 0
BBX 5 8 -1 -2
BITMAP
0200
0040
1080
1600
1A00
0C00
1400
6000
ENDCHAR
STARTCHAR thorn
ENCODING 254
SWIDTH 577 0
DWIDTH 5 0
BBX 5 8 0 -2
BITMAP
2000
2500
3600
6240
5200
A900
8000
8000
ENDCHAR
STARTCHAR ydieresis
ENCODING 255
SWIDTH 461 0
DWIDTH 4 0
BBX 5 8 -1 -2
BITMAP
0440
0040
1080
1600
1A00
0C00
1400
6000
ENDCHAR
STARTCHAR Amacron
ENCODING 256
SWIDTH 555 0
DWIDTH 4 0
BBX 5 7 -1 0
BITMAP
0280
0140
0240
0980
0980
2580
6080
ENDCHAR
STARTCHAR amacron
ENCODING 257
SWIDTH 564 0
DWIDTH 5 0
BBX 5 6 0 0
BITMAP
0500
0500
2640
5200
8200
6600
ENDCHAR
STARTCHAR Abreve
ENCODING 258
SWIDTH 555 0
DWIDTH 4 0
BBX 5 7 -1 0
BITMAP
0180
0140
0240
0980
0980
2580
6080
ENDCHAR
STARTCHAR abreve
ENCODING 259
SWIDTH 564 0
DWIDTH 5 0
BBX 5 6 0 0
BITMAP
0A00
0400
2640
5200
8200
6600
ENDCHAR
STARTCHAR Aogonek
ENCODING 260
SWIDTH 555 0
DWIDTH 4 0
BBX 5 8 -1 -2
BITMAP
0140
0240
0980
0980
2580
6080
0040
0140
ENDCHAR
STARTCHAR aogonek
ENCODING 261
SWIDTH 564 0
DWIDTH 5 0
BBX 5 7 0 -2
BITMAP
0400
2640
5200
8200
6600
0400
0400
ENDCHAR
STARTCHAR Cacute
ENCODING 262
SWIDTH 584 0
DWIDTH 5 0
BBX 5 8 0 0
BITMAP
0040
0140
0A80
2400
2000
5000
5000
2A00
ENDCHAR
STARTCHAR cacute
ENCODING 263
SWIDTH 450 0
DWIDTH 4 0
BBX 4 6 0 0
BITMAP
05
04
25
50
80
68
ENDCHAR
STARTCHAR Ccircumflex
ENCODING 264
SWIDTH 584 0
DWIDTH 5 0
BBX 5 8 0 0
BITMAP
0100
0540
0A80
2400
2000
5000
5000
2A00
ENDCHAR
STARTCHAR ccircumflex
ENCODING 265
SWIDTH 450 0
DWIDTH 4 0
BBX 4 6 0 0
BITMAP
09
05
25
50
80
68
ENDCHAR
STARTCHAR Cdot
ENCODING 266
SWIDTH 584 0
DWIDTH 5 0
BBX 5 7 0 0
BITMAP
0100
0A80
2400
2000
5000
5000
2A00
ENDCHAR
STARTCHAR cdot
ENCODING 267
SWIDTH 450 0
DWIDTH 4 0
BBX 4 6 0 0
BITMAP
04
04
25
50
80
68
ENDCHAR
STARTCHAR Ccaron
ENCODING 268
SWIDTH 584 0
DWIDTH 5 0
BBX 5 8 0 0
BITMAP
0440
0200
0A80
2400
2000
5000
5000
2A00
ENDCHAR
STARTCHAR ccaron
ENCODING 269
SWIDTH 450 0
DWIDTH 4 0
BBX 4 6 0 0
BITMAP
09
04
25
50
80
68
ENDCHAR
STARTCHAR Dcaron
ENCODING 270
SWIDTH 666 0
DWIDTH 5 0
BBX 5 8 0 0
BITMAP
0440
0600
1A00
2080
2080
2080
5180
AA00
ENDCHAR
STARTCHAR dcaron
ENCODING 271
SWIDTH 577 0
DWIDTH 5 0
BBX 6 6 0 0
BITMAP
00A0
0540
2640
5200
8200
6600
ENDCHAR
STARTCHAR Dcroat
ENCODING 272
SWIDTH 666 0
DWIDTH 5 0
BBX 5 6 0 0
BITMAP
1A00
2080
2080
6480
5180
AA00
ENDCHAR
STARTCHAR dcroat
ENCODING 273
SWIDTH 577 0
DWIDTH 5 0
BBX 5 6 0 0
BITMAP
0580
0580
2640
5200
8200
6600
ENDCHAR
STARTCHAR Emacron
ENCODING 274
SWIDTH 511 0
DWIDTH 4 0
BBX 5 7 0 0
BITMAP
0A00
1A40
2000
2500
2500
5000
A800
ENDCHAR
STARTCHAR emacron
ENCODING 275
SWIDTH 493 0
DWIDTH 4 0
BBX 4 6 0 0
BITMAP
05
05
26
69
90
68
ENDCHAR
STARTCHAR Ebreve
ENCODING 276
SWIDTH 511 0
DWIDTH 4 0
BBX 5 7 0 0
BITMAP
0600
1A40
2000
2500
2500
5000
A800
ENDCHAR
STARTCHAR ebreve
ENCODING 277
SWIDTH 493 0
DWIDTH 4 0
BBX 4 6 0 0
BITMAP
19
04
26
69
90
68
ENDCHAR
STARTCHAR Edotaccent
ENCODING 278
SWIDTH 511 0
DWIDTH 4 0
BBX 5 7 0 0
BITMAP
0500
1A40
2000
2500
2500
5000
A800
ENDCHAR
STARTCHAR edotaccent
ENCODING 279
SWIDTH 493 0
DWIDTH 4 0
BBX 4 6 0 0
BITMAP
04
04
26
69
90
68
ENDCHAR
STARTCHAR Eogonek
ENCODING 280
SWIDTH 511 0
DWIDTH 4 0
BBX 5 8 0 -2
BITMAP
1A40
2000
2500
2500
5000
A800
0400
0400
ENDCHAR
STARTCHAR eogonek
ENCODING 281
SWIDTH 493 0
DWIDTH 4 0
BBX 4 7 0 -2
BITMAP
04
26
69
90
68
14
04
ENDCHAR
STARTCHAR Ecaron
ENCODING 282
SWIDTH 511 0
DWIDTH 4 0
BBX 5 8 0 0
BITMAP
0400
0500
1A40
2000
2500
2500
5000
A800
ENDCHAR
STARTCHAR ecaron
ENCODING 283
SWIDTH 493 0
DWIDTH 4 0
BBX 4 6 0 0
BITMAP
09
04
26
69
90
68
ENDCHAR
STARTCHAR Gcircumflex
ENCODING 284
SWIDTH 676 0
DWIDTH 5 0
BBX 5 8 0 0
BITMAP
0100
0540
0A80
2400
2000
5280
5080
2A40
ENDCHAR
STARTCHAR gcircumflex
ENCODING 285
SWIDTH 500 0
DWIDTH 4 0
BBX 5 8 -1 -2
BITMAP
0640
0540
1980
1540
1900
2A00
5140
6A00
ENDCHAR
STARTCHAR Gbreve
ENCODING 286
SWIDTH 676 0
DWIDTH 5 0
BBX 5 7 0 0
BITMAP
0640
0A80
2400
2000
5280
5080
2A40
ENDCHAR
STARTCHAR gbreve
ENCODING 287
SWIDTH 500 0
DWIDTH 4 0
BBX 5 8 -1 -2
BITMAP
0540
0140
1980
1540
1900
2A00
5140
6A00
ENDCHAR
STARTCHAR Gdot
ENCODING 288
SWIDTH 676 0
DWIDTH 5 0
BBX 5 7 0 0
BITMAP
0100
0A80
2400
2000
5280
5080
2A40
ENDCHAR
STARTCHAR gdot
ENCODING 289
SWIDTH 500 0
DWIDTH 4 0
BBX 5 8 -1 -2
BITMAP
0100
0140
1980
1540
1900
2A00
5140
6A00
ENDCHAR
STARTCHAR Gcommaaccent
ENCODING 290
SWIDTH 676 0
DWIDTH 5 0
BBX 5 8 0 -2
BITMAP
0A80
2400
2000
5280
5080
2A40
0400
0400
ENDCHAR
STARTCHAR gcommaaccent
ENCODING 291
SWIDTH 500 0
DWIDTH 4 0
BBX 5 8 -1 -2
BITMAP
0140
0140
1980
1540
1900
2A00
5140
6A00
ENDCHAR
STARTCHAR Hcircumflex
ENCODING 292
SWIDTH 678 0
DWIDTH 5 0
BBX 6 8 0 0
BITMAP
0100
0540
1050
2050
2580
2580
5080
8140
ENDCHAR
STARTCHAR hcircumflex
ENCODING 293
SWIDTH 577 0
DWIDTH 5 0
BBX 4 8 0 0
BITMAP
05
05
20
25
36
62
52
82
ENDCHAR
STARTCHAR Hbar
ENCODING 294
SWIDTH 678 0
DWIDTH 5 0
BBX 6 6 0 0
BITMAP
1050
7AA0
2580
2580
5080
8140
ENDCHAR
STARTCHAR hbar
ENCODING 295
SWIDTH 577 0
DWIDTH 5 0
BBX 4 6 0 0
BITMAP
24
25
26
62
52
82
ENDCHAR
STARTCHAR Itilde
ENCODING 296
SWIDTH 272 0
DWIDTH 2 0
BBX 3 7 0 0
BITMAP
58
10
20
20
20
50
80
ENDCHAR
STARTCHAR itilde
ENCODING 297
SWIDTH 253 0
DWIDTH 2 0
BBX 3 6 0 0
BITMAP
68
10
20
50
50
80
ENDCHAR
STARTCHAR Imacron
ENCODING 298
SWIDTH 272 0
DWIDTH 2 0
BBX 3 7 0 0
BITMAP
28
10
20
20
20
50
80
ENDCHAR
STARTCHAR imacron
ENCODING 299
SWIDTH 253 0
DWIDTH 2 0
BBX 3 6 0 0
BITMAP
54
10
20
50
50
80
ENDCHAR
STARTCHAR Ibreve
ENCODING 300
SWIDTH 272 0
DWIDTH 2 0
BBX 3 7 0 0
BITMAP
28
10
20
20
20
50
80
ENDCHAR
STARTCHAR ibreve
ENCODING 301
SWIDTH 253 0
DWIDTH 2 0
BBX 3 6 0 0
BITMAP
54
10
20
50
50
80
ENDCHAR
STARTCHAR Iogonek
ENCODING 302
SWIDTH 272 0
DWIDTH 2 0
BBX 2 8 0 -2
BITMAP
10
20
20
20
50
80
40
40
ENDCHAR
STARTCHAR iogonek
ENCODING 303
SWIDTH 253 0
DWIDTH 2 0
BBX 3 8 -1 -2
BITMAP
04
04
08
14
14
20
10
50
ENDCHAR
STARTCHAR Idotaccent
ENCODING 304
SWIDTH 272 0
DWIDTH 2 0
BBX 3 7 0 0
BITMAP
04
10
20
20
20
50
80
ENDCHAR
STARTCHAR dotlessi
ENCODING 305
SWIDTH 253 0
DWIDTH 2 0
BBX 2 5 0 0
BITMAP
10
20
50
50
80
ENDCHAR
STARTCHAR IJ
ENCODING 306
SWIDTH 540 0
DWIDTH 4 0
BBX 5 8 0 -2
BITMAP
1140
2200
2200
2200
5200
8500
0800
1400
ENDCHAR
STARTCHAR ij
ENCODING 307
SWIDTH 507 0
DWIDTH 4 0
BBX 4 8 0 -2
BITMAP
11
11
22
55
55
88
08
24
ENDCHAR
STARTCHAR Jcircumflex
ENCODING 308
SWIDTH 267 0
DWIDTH 2 0
BBX 4 10 -1 -2
BITMAP
01
05
04
08
08
08
14
20
60
40
ENDCHAR
STARTCHAR jcircumflex
ENCODING 309
SWIDTH 253 0
DWIDTH 2 0
BBX 4 8 -1 -2
BITMAP
19
04
08
14
14
20
20
90
ENDCHAR
STARTCHAR Kcommaaccent
ENCODING 310
SWIDTH 557 0
DWIDTH 4 0
BBX 5 8 0 -2
BITMAP
1080
2200
2800
2800
5500
8200
1000
1000
ENDCHAR
STARTCHAR kcommaaccent
ENCODING 311
SWIDTH 487 0
DWIDTH 4 0
BBX 4 8 0 -2
BITMAP
20
21
25
64
58
89
10
10
ENDCHAR
STARTCHAR kgreenlandic
ENCODING 312
SWIDTH 487 0
DWIDTH 4 0
BBX 4 5 0 0
BITMAP
11
25
64
58
89
ENDCHAR
STARTCHAR Lacute
ENCODING 313
SWIDTH 474 0
DWIDTH 4 0
BBX 3 8 0 0
BITMAP
04
04
10
20
20
20
50
A8
ENDCHAR
STARTCHAR lacute
ENCODING 314
SWIDTH 253 0
DWIDTH 2 0
BBX 3 8 0 0
BITMAP
04
14
20
20
20
50
50
80
ENDCHAR
STARTCHAR Lcommaaccent
ENCODING 315
SWIDTH 474 0
DWIDTH 4 0
BBX 3 8 0 -2
BITMAP
10
20
20
20
50
A8
00
10
ENDCHAR
STARTCHAR lcommaaccent
ENCODING 316
SWIDTH 253 0
DWIDTH 2 0
BBX 2 8 0 -2
BITMAP
20
20
20
50
50
80
40
40
ENDCHAR
STARTCHAR Lcaron
ENCODING 317
SWIDTH 474 0
DWIDTH 4 0
BBX 4 6 0 0
BITMAP
11
21
20
20
50
A8
ENDCHAR
STARTCHAR lcaron
ENCODING 318
SWIDTH 253 0
DWIDTH 2 0
BBX 4 6 0 0
BITMAP
25
20
20
50
50
80
ENDCHAR
STARTCHAR Ldot
ENCODING 319
SWIDTH 474 0
DWIDTH 4 0
BBX 4 6 0 0
BITMAP
10
20
20
21
50
A8
ENDCHAR
STARTCHAR ldot
ENCODING 320
SWIDTH 283 0
DWIDTH 2 0
BBX 3 6 0 0
BITMAP
20
20
24
54
50
80
ENDCHAR
STARTCHAR Lslash
ENCODING 321
SWIDTH 474 0
DWIDTH 4 0
BBX 3 6 0 0
BITMAP
10
20
24
60
50
A8
ENDCHAR
STARTCHAR lslash
ENCODING 322
SWIDTH 250 0
DWIDTH 2 0
BBX 2 6 0 0
BITMAP
20
20
20
90
50
80
ENDCHAR
STARTCHAR Nacute
ENCODING 323
SWIDTH 702 0
DWIDTH 6 0
BBX 6 8 0 0
BITMAP
0040
0100
1410
2850
2850
2580
5280
8180
ENDCHAR
STARTCHAR nacute
ENCODING 324
SWIDTH 577 0
DWIDTH 5 0
BBX 4 6 0 0
BITMAP
02
05
26
62
52
82
ENDCHAR
STARTCHAR Ncommaaccent
ENCODING 325
SWIDTH 702 0
DWIDTH 6 0
BBX 6 8 0 -2
BITMAP
1410
2850
2850
2580
5280
8180
0400
1000
ENDCHAR
STARTCHAR ncommaaccent
ENCODING 326
SWIDTH 577 0
DWIDTH 5 0
BBX 4 7 0 -2
BITMAP
05
26
62
52
82
10
10
ENDCHAR
STARTCHAR Ncaron
ENCODING 327
SWIDTH 702 0
DWIDTH 6 0
BBX 6 8 0 0
BITMAP
0040
0240
1410
2850
2850
2580
5280
8180
ENDCHAR
STARTCHAR ncaron
ENCODING 328
SWIDTH 577 0
DWIDTH 5 0
BBX 4 6 0 0
BITMAP
0A
05
26
62
52
82
ENDCHAR
STARTCHAR napostrophe
ENCODING 329
SWIDTH 645 0
DWIDTH 5 0
BBX 5 6 0 0
BITMAP
2000
5100
1980
2080
2140
2240
ENDCHAR
STARTCHAR Eng
ENCODING 330
SWIDTH 702 0
DWIDTH 6 0
BBX 6 8 0 -2
BITMAP
1410
2850
2850
2580
5280
8180
0240
0500
ENDCHAR
STARTCHAR eng
ENCODING 331
SWIDTH 577 0
DWIDTH 5 0
BBX 4 7 0 -2
BITMAP
05
26
62
52
82
05
18
ENDCHAR
STARTCHAR Omacron
ENCODING 332
SWIDTH 720 0
DWIDTH 6 0
BBX 6 7 0 0
BITMAP
0640
0A40
2050
6050
5050
5080
2A40
ENDCHAR
STARTCHAR omacron
ENCODING 333
SWIDTH 561 0
DWIDTH 4 0
BBX 4 6 0 0
BITMAP
05
05
26
52
82
69
ENDCHAR
STARTCHAR Obreve
ENCODING 334
SWIDTH 720 0
DWIDTH 6 0
BBX 6 7 0 0
BITMAP
0640
0A40
2050
6050
5050
5080
2A40
ENDCHAR
STARTCHAR obreve
ENCODING 335
SWIDTH 561 0
DWIDTH 4 0
BBX 4 6 0 0
BITMAP
19
04
26
52
82
69
ENDCHAR
STARTCHAR Ohungarumlaut
ENCODING 336
SWIDTH 720 0
DWIDTH 6 0
BBX 6 8 0 0
BITMAP
0110
0140
0A40
2050
6050
5050
5080
2A40
ENDCHAR
STARTCHAR ohungarumlaut
ENCODING 337
SWIDTH 561 0
DWIDTH 4 0
BBX 4 6 0 0
BITMAP
09
04
26
52
82
69
ENDCHAR
STARTCHAR OE
ENCODING 338
SWIDTH 854 0
DWIDTH 7 0
BBX 7 6 0 0
BITMAP
0AA8
2080
6190
5150
5200
2BA0
ENDCHAR
STARTCHAR oe
ENCODING 339
SWIDTH 863 0
DWIDTH 7 0
BBX 7 5 0 0
BITMAP
0410
2698
52A4
8240
69A0
ENDCHAR
STARTCHAR Racute
ENCODING 340
SWIDTH 568 0
DWIDTH 5 0
BBX 5 8 0 0
BITMAP
0100
0100
1A00
2140
2140
2900
5500
8200
ENDCHAR
STARTCHAR racute
ENCODING 341
SWIDTH 395 0
DWIDTH 3 0
BBX 4 6 0 0
BITMAP
09
04
24
60
50
80
ENDCHAR
STARTCHAR Rcommaaccent
ENCODING 342
SWIDTH 568 0
DWIDTH 5 0
BBX 5 8 0 -2
BITMAP
1A00
2140
2140
2900
5500
8200
0400
1000
ENDCHAR
STARTCHAR rcommaaccent
ENCODING 343
SWIDTH 395 0
DWIDTH 3 0
BBX 4 7 -1 -2
BITMAP
01
09
18
14
20
10
50
ENDCHAR
STARTCHAR Rcaron
ENCODING 344
SWIDTH 568 0
DWIDTH 5 0
BBX 5 8 0 0
BITMAP
0400
0500
1A00
2140
2140
2900
5500
8200
ENDCHAR
STARTCHAR rcaron
ENCODING 345
SWIDTH 395 0
DWIDTH 3 0
BBX 4 6 0 0
BITMAP
19
14
24
60
50
80
ENDCHAR
STARTCHAR Sacute
ENCODING 346
SWIDTH 501 0
DWIDTH 4 0
BBX 4 8 0 0
BITMAP
01
05
1A
20
20
09
06
A8
ENDCHAR
STARTCHAR sacute
ENCODING 347
SWIDTH 428 0
DWIDTH 3 0
BBX 3 6 0 0
BITMAP
08
14
64
60
08
A8
ENDCHAR
STARTCHAR Scircumflex
ENCODING 348
SWIDTH 501 0
DWIDTH 4 0
BBX 4 8 0 0
BITMAP
05
05
1A
20
20
09
06
A8
ENDCHAR
STARTCHAR scircumflex
ENCODING 349
SWIDTH 428 0
DWIDTH 3 0
BBX 3 6 0 0
BITMAP
18
14
64
60
08
A8
ENDCHAR
STARTCHAR Scedilla
ENCODING 350
SWIDTH 501 0
DWIDTH 4 0
BBX 4 8 0 -2
BITMAP
1A
20
20
09
06
A8
20
20
ENDCHAR
STARTCHAR scedilla
ENCODING 351
SWIDTH 428 0
DWIDTH 3 0
BBX 3 7 0 -2
BITMAP
14
64
60
08
A8
20
50
ENDCHAR
STARTCHAR Scaron
ENCODING 352
SWIDTH 501 0
DWIDTH 4 0
BBX 4 8 0 0
BITMAP
01
09
1A
20
20
09
06
A8
ENDCHAR
STARTCHAR scaron
ENCODING 353
SWIDTH 428 0
DWIDTH 3 0
BBX 3 6 0 0
BITMAP
28
14
64
60
08
A8
ENDCHAR
STARTCHAR Tcedilla
ENCODING 354
SWIDTH 498 0
DWIDTH 4 0
BBX 5 8 0 -2
BITMAP
2A40
0800
0800
1400
1400
2000
2000
6000
ENDCHAR
STARTCHAR tcedilla
ENCODING 355
SWIDTH 324 0
DWIDTH 3 0
BBX 3 7 0 -2
BITMAP
24
64
50
50
60
50
50
ENDCHAR
STARTCHAR Tcaron
ENCODING 356
SWIDTH 498 0
DWIDTH 4 0
BBX 4 8 1 0
BITMAP
14
24
A9
20
20
50
50
80
ENDCHAR
STARTCHAR tcaron
ENCODING 357
SWIDTH 324 0
DWIDTH 3 0
BBX 4 6 0 0
BITMAP
01
24
64
50
50
60
ENDCHAR
STARTCHAR Tbar
ENCODING 358
SWIDTH 498 0
DWIDTH 4 0
BBX 4 6 1 0
BITMAP
A9
20
60
A4
50
80
ENDCHAR
STARTCHAR tbar
ENCODING 359
SWIDTH 324 0
DWIDTH 3 0
BBX 3 5 0 0
BITMAP
24
64
A4
50
60
ENDCHAR
STARTCHAR Utilde
ENCODING 360
SWIDTH 675 0
DWIDTH 5 0
BBX 6 7 0 0
BITMAP
0640
1050
2050
2080
5080
5080
2A00
ENDCHAR
STARTCHAR utilde
ENCODING 361
SWIDTH 577 0
DWIDTH 5 0
BBX 5 6 0 0
BITMAP
1A00
1000
2140
5200
5200
6A00
ENDCHAR
STARTCHAR Umacron
ENCODING 362
SWIDTH 675 0
DWIDTH 5 0
BBX 6 7 0 0
BITMAP
0640
1050
2050
2080
5080
5080
2A00
ENDCHAR
STARTCHAR umacron
ENCODING 363
SWIDTH 577 0
DWIDTH 5 0
BBX 5 6 0 0
BITMAP
0500
1100
2140
5200
5200
6A00
ENDCHAR
STARTCHAR Ubreve
ENCODING 364
SWIDTH 675 0
DWIDTH 5 0
BBX 6 7 0 0
BITMAP
0640
1050
2050
2080
5080
5080
2A00
ENDCHAR
STARTCHAR ubreve
ENCODING 365
SWIDTH 577 0
DWIDTH 5 0
BBX 5 6 0 0
BITMAP
0A00
1000
2140
5200
5200
6A00
ENDCHAR
STARTCHAR Uring
ENCODING 366
SWIDTH 675 0
DWIDTH 5 0
BBX 6 8 0 0
BITMAP
0140
0140
1050
2050
2080
5080
5080
2A00
ENDCHAR
STARTCHAR uring
ENCODING 367
SWIDTH 577 0
DWIDTH 5 0
BBX 5 7 0 0
BITMAP
0500
0900
1000
2140
5200
5200
6A00
ENDCHAR
STARTCHAR Uhungarumlaut
ENCODING 368
SWIDTH 675 0
DWIDTH 5 0
BBX 6 8 0 0
BITMAP
0140
0140
1050
2050
2080
5080
5080
2A00
ENDCHAR
STARTCHAR uhungarumlaut
ENCODING 369
SWIDTH 577 0
DWIDTH 5 0
BBX 5 6 0 0
BITMAP
0940
1000
2140
5200
5200
6A00
ENDCHAR
STARTCHAR Uogonek
ENCODING 370
SWIDTH 675 0
DWIDTH 5 0
BBX 6 8 0 -2
BITMAP
1050
2050
2080
5080
5080
2A00
0800
0800
ENDCHAR
STARTCHAR uogonek
ENCODING 371
SWIDTH 577 0
DWIDTH 5 0
BBX 5 7 0 -2
BITMAP
1000
2140
5200
5200
6A00
0400
0400
ENDCHAR
STARTCHAR Wcircumflex
ENCODING 372
SWIDTH 852 0
DWIDTH 7 0
BBX 7 8 1 0
BITMAP
0100
0500
4514
8A20
9650
A280
9280
C200
ENDCHAR
STARTCHAR wcircumflex
ENCODING 373
SWIDTH 716 0
DWIDTH 6 0
BBX 6 6 0 0
BITMAP
0600
0010
8620
5A50
6280
6240
ENDCHAR
STARTCHAR Ycircumflex
ENCODING 374
SWIDTH 502 0
DWIDTH 4 0
BBX 4 8 1 0
BITMAP
10
54
41
88
94
60
50
80
ENDCHAR
STARTCHAR ycircumflex
ENCODING 375
SWIDTH 461 0
DWIDTH 4 0
BBX 5 8 -1 -2
BITMAP
0600
0040
1080
1600
1A00
0C00
1400
6000
ENDCHAR
STARTCHAR Ydieresis
ENCODING 376
SWIDTH 502 0
DWIDTH 4 0
BBX 4 7 1 0
BITMAP
14
41
88
94
60
50
80
ENDCHAR
STARTCHAR Zacute
ENCODING 377
SWIDTH 530 0
DWIDTH 4 0
BBX 5 8 0 0
BITMAP
0100
0100
2A40
0200
0900
1400
6000
E900
ENDCHAR
STARTCHAR zacute
ENCODING 378
SWIDTH 443 0
DWIDTH 4 0
BBX 4 6 0 0
BITMAP
05
14
19
14
60
D4
ENDCHAR
STARTCHAR Zdotaccent
ENCODING 379
SWIDTH 530 0
DWIDTH 4 0
BBX 5 7 0 0
BITMAP
0500
2A40
0200
0900
1400
6000
E900
ENDCHAR
STARTCHAR zdotaccent
ENCODING 380
SWIDTH 443 0
DWIDTH 4 0
BBX 4 6 0 0
BITMAP
04
14
19
14
60
D4
ENDCHAR
STARTCHAR Zcaron
ENCODING 381
SWIDTH 530 0
DWIDTH 4 0
BBX 5 8 0 0
BITMAP
0400
0500
2A40
0200
0900
1400
6000
E900
ENDCHAR
STARTCHAR zcaron
ENCODING 382
SWIDTH 443 0
DWIDTH 4 0
BBX 4 6 0 0
BITMAP
19
14
19
14
60
D4
ENDCHAR
STARTCHAR longs
ENCODING 383
SWIDTH 274 0
DWIDTH 2 0
BBX 4 8 -1 -2
BITMAP
06
08
08
14
14
20
20
90
ENDCHAR
STARTCHAR florin
ENCODING 402
SWIDTH 550 0
DWIDTH 4 0
BBX 4 8 0 -2
BITMAP
06
08
19
14
14
20
20
90
ENDCHAR
STARTCHAR Ohorn
ENCODING 416
SWIDTH 713 0
DWIDTH 6 0
BBX 7 6 0 0
BITMAP
0A54
2060
6050
5050
5080
2A40
ENDCHAR
STARTCHAR ohorn
ENCODING 417
SWIDTH 561 0
DWIDTH 4 0
BBX 5 5 0 0
BITMAP
0480
2640
5200
8200
6900
ENDCHAR
STARTCHAR Uhorn
ENCODING 431
SWIDTH 722 0
DWIDTH 6 0
BBX 7 6 0 0
BITMAP
1058
2050
2080
5080
5080
2A00
ENDCHAR
STARTCHAR uhorn
ENCODING 432
SWIDTH 617 0
DWIDTH 5 0
BBX 6 5 0 0
BITMAP
1060
2180
5200
5200
6A00
ENDCHAR
STARTCHAR uni01F0
ENCODING 496
SWIDTH 253 0
DWIDTH 2 0
BBX 4 8 -1 -2
BITMAP
09
04
08
14
14
20
20
90
ENDCHAR
STARTCHAR Aringacute
ENCODING 506
SWIDTH 555 0
DWIDTH 4 0
BBX 5 8 -1 0
BITMAP
0040
0140
0140
0280
0980
0980
2580
6080
ENDCHAR
STARTCHAR aringacute
ENCODING 507
SWIDTH 564 0
DWIDTH 5 0
BBX 5 8 0 0
BITMAP
0100
0500
0500
0400
2640
5200
8200
6600
ENDCHAR
STARTCHAR AEacute
ENCODING 508
SWIDTH 816 0
DWIDTH 7 0
BBX 8 8 -1 0
BITMAP
0004
0014
00A9
0250
0654
0994
2580
60E4
ENDCHAR
STARTCHAR aeacute
ENCODING 509
SWIDTH 814 0
DWIDTH 7 0
BBX 7 6 0 0
BITMAP
0080
0550
2764
5360
8600
6A90
ENDCHAR
STARTCHAR Oslashacute
ENCODING 510
SWIDTH 720 0
DWIDTH 6 0
BBX 6 8 0 0
BITMAP
0040
0100
0A90
20D0
6250
5950
6480
7A40
ENDCHAR
STARTCHAR oslashacute
ENCODING 511
SWIDTH 561 0
DWIDTH 4 0
BBX 4 6 0 0
BITMAP
05
05
27
5A
A2
69
ENDCHAR
STARTCHAR Scommaaccent
ENCODING 536
SWIDTH 501 0
DWIDTH 4 0
BBX 4 8 0 -2
BITMAP
1A
20
20
09
06
A8
10
10
ENDCHAR
STARTCHAR scommaaccent
ENCODING 537
SWIDTH 428 0
DWIDTH 3 0
BBX 3 7 0 -2
BITMAP
14
64
60
08
A8
10
40
ENDCHAR
STARTCHAR Tcommaaccent
ENCODING 538
SWIDTH 498 0
DWIDTH 4 0
BBX 5 8 0 -2
BITMAP
2A40
0800
0800
1400
1400
2000
1000
5000
ENDCHAR
STARTCHAR tcommaaccent
ENCODING 539
SWIDTH 324 0
DWIDTH 3 0
BBX 3 7 0 -2
BITMAP
24
64
50
50
60
10
40
ENDCHAR
STARTCHAR dotlessj
ENCODING 567
SWIDTH 253 0
DWIDTH 2 0
BBX 3 7 -1 -2
BITMAP
04
08
14
14
20
20
90
ENDCHAR
STARTCHAR uni02BC
ENCODING 700
SWIDTH 169 0
DWIDTH 1 0
BBX 2 2 0 4
BITMAP
20
50
ENDCHAR
STARTCHAR circumflex
ENCODING 710
SWIDTH 554 0
DWIDTH 4 0
BBX 2 1 2 5
BITMAP
A0
ENDCHAR
STARTCHAR caron
ENCODING 711
SWIDTH 554 0
DWIDTH 4 0
BBX 2 1 2 5
BITMAP
A0
ENDCHAR
STARTCHAR macron
ENCODING 713
SWIDTH 535 0
DWIDTH 4 0
BBX 2 1 2 5
BITMAP
50
ENDCHAR
STARTCHAR breve
ENCODING 728
SWIDTH 554 0
DWIDTH 4 0
BBX 2 1 2 5
BITMAP
A0
ENDCHAR
STARTCHAR dotaccent
ENCODING 729
SWIDTH 243 0
DWIDTH 2 0
BBX 1 1 1 5
BITMAP
40
ENDCHAR
STARTCHAR ring
ENCODING 730
SWIDTH 577 0
DWIDTH 5 0
BBX 2 2 2 5
BITMAP
50
50
ENDCHAR
STARTCHAR ogonek
ENCODING 731
SWIDTH 182 0
DWIDTH 1 0
BBX 2 2 -1 -2
BITMAP
50
50
ENDCHAR
STARTCHAR tilde
ENCODING 732
SWIDTH 554 0
DWIDTH 4 0
BBX 3 1 1 5
BITMAP
68
ENDCHAR
STARTCHAR hungarumlaut
ENCODING 733
SWIDTH 554 0
DWIDTH 4 0
BBX 2 1 2 5
BITMAP
A0
ENDCHAR
STARTCHAR uni02F3
ENCODING 755
SWIDTH 333 0
DWIDTH 3 0
BBX 3 2 -1 -2
BITMAP
10
54
ENDCHAR
STARTCHAR uni0300
ENCODING 768
SWIDTH 0 0
DWIDTH 0 0
BBX 2 1 -3 5
BITMAP
50
ENDCHAR
STARTCHAR uni0301
ENCODING 769
SWIDTH 0 0
DWIDTH 0 0
BBX 1 1 -2 5
BITMAP
80
ENDCHAR
STARTCHAR uni0303
ENCODING 771
SWIDTH 0 0
DWIDTH 0 0
BBX 3 1 -3 5
BITMAP
A4
ENDCHAR
STARTCHAR hook
ENCODING 777
SWIDTH 0 0
DWIDTH 0 0
BBX 1 2 -2 5
BITMAP
40
80
ENDCHAR
STARTCHAR uni030F
ENCODING 783
SWIDTH 0 0
DWIDTH 0 0
BBX 3 1 -4 5
BITMAP
94
ENDCHAR
STARTCHAR dotbelow
ENCODING 803
SWIDTH 0 0
DWIDTH 0 0
BBX 1 1 -3 -1
BITMAP
40
ENDCHAR
STARTCHAR tonos
ENCODING 900
SWIDTH 562 0
DWIDTH 5 0
BBX 2 2 2 5
BITMAP
10
50
ENDCHAR
STARTCHAR dieresistonos
ENCODING 901
SWIDTH 562 0
DWIDTH 5 0
BBX 2 2 2 5
BITMAP
10
50
ENDCHAR
STARTCHAR Alphatonos
ENCODING 902
SWIDTH 555 0
DWIDTH 4 0
BBX 5 6 -1 0
BITMAP
0940
1240
0980
0980
2580
6080
ENDCHAR
STARTCHAR anoteleia
ENCODING 903
SWIDTH 252 0
DWIDTH 2 0
BBX 2 2 0 2
BITMAP
10
50
ENDCHAR
STARTCHAR Epsilontonos
ENCODING 904
SWIDTH 567 0
DWIDTH 5 0
BBX 5 6 0 0
BITMAP
5A80
5400
1500
2500
2000
3900
ENDCHAR
STARTCHAR Etatonos
ENCODING 905
SWIDTH 753 0
DWIDTH 6 0
BBX 6 6 0 0
BITMAP
5410
4820
1960
2590
2040
2080
ENDCHAR
STARTCHAR Iotatonos
ENCODING 906
SWIDTH 363 0
DWIDTH 3 0
BBX 3 6 0 0
BITMAP
64
48
14
14
20
20
ENDCHAR
STARTCHAR Omicrontonos
ENCODING 908
SWIDTH 756 0
DWIDTH 6 0
BBX 6 6 0 0
BITMAP
6680
5460
2020
2020
2050
1A80
ENDCHAR
STARTCHAR Upsilontonos
ENCODING 910
SWIDTH 640 0
DWIDTH 5 0
BBX 6 6 0 0
BITMAP
5410
4880
0940
0600
0500
0800
ENDCHAR
STARTCHAR Omegatonos
ENCODING 911
SWIDTH 782 0
DWIDTH 6 0
BBX 6 6 0 0
BITMAP
2680
5420
2020
2020
2090
6690
ENDCHAR
STARTCHAR iotadieresistonos
ENCODING 912
SWIDTH 305 0
DWIDTH 2 0
BBX 3 7 0 0
BITMAP
04
54
10
20
50
40
60
ENDCHAR
STARTCHAR Alpha
ENCODING 913
SWIDTH 555 0
DWIDTH 4 0
BBX 5 6 -1 0
BITMAP
0140
0240
0980
0980
2580
6080
ENDCHAR
STARTCHAR Beta
ENCODING 914
SWIDTH 598 0
DWIDTH 5 0
BBX 5 6 0 0
BITMAP
1A40
2080
2540
2600
5140
AA00
ENDCHAR
STARTCHAR Gamma
ENCODING 915
SWIDTH 476 0
DWIDTH 4 0
BBX 5 6 0 0
BITMAP
1A40
2000
2000
2000
5000
8000
ENDCHAR
STARTCHAR uni0394
ENCODING 916
SWIDTH 558 0
DWIDTH 4 0
BBX 4 6 0 0
BITMAP
05
09
16
22
82
EA
ENDCHAR
STARTCHAR Epsilon
ENCODING 917
SWIDTH 511 0
DWIDTH 4 0
BBX 5 6 0 0
BITMAP
1A40
2000
2500
2500
5000
A800
ENDCHAR
STARTCHAR Zeta
ENCODING 918
SWIDTH 530 0
DWIDTH 4 0
BBX 5 6 0 0
BITMAP
2A40
0200
0900
1400
6000
E900
ENDCHAR
STARTCHAR Eta
ENCODING 919
SWIDTH 678 0
DWIDTH 5 0
BBX 6 6 0 0
BITMAP
1050
2050
2580
2580
5080
8140
ENDCHAR
STARTCHAR Theta
ENCODING 920
SWIDTH 720 0
DWIDTH 6 0
BBX 6 6 0 0
BITMAP
0A40
2050
6550
5550
5080
2A40
ENDCHAR
STARTCHAR Iota
ENCODING 921
SWIDTH 272 0
DWIDTH 2 0
BBX 2 6 0 0
BITMAP
10
20
20
20
50
80
ENDCHAR
STARTCHAR Kappa
ENCODING 922
SWIDTH 557 0
DWIDTH 4 0
BBX 5 6 0 0
BITMAP
1080
2200
2800
2800
5500
8200
ENDCHAR
STARTCHAR Lambda
ENCODING 923
SWIDTH 558 0
DWIDTH 4 0
BBX 5 6 -1 0
BITMAP
0140
0280
0880
0880
2080
6080
ENDCHAR
STARTCHAR Mu
ENCODING 924
SWIDTH 836 0
DWIDTH 7 0
BBX 7 6 0 0
BITMAP
1414
2824
2864
1860
5A20
8520
ENDCHAR
STARTCHAR Nu
ENCODING 925
SWIDTH 702 0
DWIDTH 6 0
BBX 6 6 0 0
BITMAP
1410
2850
2850
2580
5280
8180
ENDCHAR
STARTCHAR Xi
ENCODING 926
SWIDTH 517 0
DWIDTH 4 0
BBX 5 6 0 0
BITMAP
1A40
0000
1400
1400
0000
A900
ENDCHAR
STARTCHAR Omicron
ENCODING 927
SWIDTH 720 0
DWIDTH 6 0
BBX 6 6 0 0
BITMAP
0A40
2050
6050
5050
5080
2A40
ENDCHAR
STARTCHAR Pi
ENCODING 928
SWIDTH 679 0
DWIDTH 5 0
BBX 6 6 0 0
BITMAP
1A90
2050
2080
2080
5080
8140
ENDCHAR
STARTCHAR Rho
ENCODING 929
SWIDTH 565 0
DWIDTH 5 0
BBX 5 6 0 0
BITMAP
1A00
2140
2140
2900
5000
8000
ENDCHAR
STARTCHAR Sigma
ENCODING 931
SWIDTH 520 0
DWIDTH 4 0
BBX 5 6 0 0
BITMAP
2A40
2000
1400
1400
6000
E900
ENDCHAR
STARTCHAR Tau
ENCODING 932
SWIDTH 498 0
DWIDTH 4 0
BBX 4 6 1 0
BITMAP
A9
20
20
50
50
80
ENDCHAR
STARTCHAR Upsilon
ENCODING 933
SWIDTH 502 0
DWIDTH 4 0
BBX 4 6 1 0
BITMAP
41
88
94
60
50
80
ENDCHAR
STARTCHAR Phi
ENCODING 934
SWIDTH 744 0
DWIDTH 6 0
BBX 6 6 0 0
BITMAP
0200
1B90
6220
5520
2A80
0800
ENDCHAR
STARTCHAR Chi
ENCODING 935
SWIDTH 519 0
DWIDTH 4 0
BBX 5 6 0 0
BITMAP
1040
2200
1800
1800
5500
8200
ENDCHAR
STARTCHAR Psi
ENCODING 936
SWIDTH 734 0
DWIDTH 6 0
BBX 6 6 0 0
BITMAP
1110
2220
5220
2A90
0900
0800
ENDCHAR
STARTCHAR uni03A9
ENCODING 937
SWIDTH 732 0
DWIDTH 6 0
BBX 6 6 0 0
BITMAP
0A40
2050
6060
5050
2080
B780
ENDCHAR
STARTCHAR Iotadieresis
ENCODING 938
SWIDTH 272 0
DWIDTH 2 0
BBX 3 7 0 0
BITMAP
14
10
20
20
20
50
80
ENDCHAR
STARTCHAR Upsilondieresis
ENCODING 939
SWIDTH 502 0
DWIDTH 4 0
BBX 4 7 1 0
BITMAP
14
41
88
94
60
50
80
ENDCHAR
STARTCHAR alphatonos
ENCODING 940
SWIDTH 568 0
DWIDTH 5 0
BBX 5 7 0 0
BITMAP
0100
0500
0400
2640
5200
8200
6600
ENDCHAR
STARTCHAR epsilontonos
ENCODING 941
SWIDTH 444 0
DWIDTH 4 0
BBX 4 7 0 0
BITMAP
01
08
04
25
24
90
A8
ENDCHAR
STARTCHAR etatonos
ENCODING 942
SWIDTH 577 0
DWIDTH 5 0
BBX 4 9 0 -2
BITMAP
01
05
05
26
62
52
82
05
05
ENDCHAR
STARTCHAR iotatonos
ENCODING 943
SWIDTH 305 0
DWIDTH 2 0
BBX 3 7 0 0
BITMAP
04
14
10
20
50
40
60
ENDCHAR
STARTCHAR upsilondieresistonos
ENCODING 944
SWIDTH 576 0
DWIDTH 5 0
BBX 5 7 0 0
BITMAP
0100
1500
1000
2140
5200
5200
6900
ENDCHAR
STARTCHAR alpha
ENCODING 945
SWIDTH 568 0
DWIDTH 5 0
BBX 5 5 0 0
BITMAP
0400
2640
5200
8200
6600
ENDCHAR
STARTCHAR beta
ENCODING 946
SWIDTH 577 0
DWIDTH 5 0
BBX 5 8 0 -2
BITMAP
1A40
2140
2600
5200
5200
AA00
8000
8000
ENDCHAR
STARTCHAR gamma
ENCODING 947
SWIDTH 458 0
DWIDTH 4 0
BBX 4 7 0 -2
BITMAP
01
42
58
68
30
50
80
ENDCHAR
STARTCHAR delta
ENCODING 948
SWIDTH 553 0
DWIDTH 4 0
BBX 5 6 0 0
BITMAP
1A40
1400
1900
5200
8200
6900
ENDCHAR
STARTCHAR epsilon
ENCODING 949
SWIDTH 444 0
DWIDTH 4 0
BBX 4 5 0 0
BITMAP
04
25
24
90
A8
ENDCHAR
STARTCHAR zeta
ENCODING 950
SWIDTH 453 0
DWIDTH 4 0
BBX 4 8 0 -2
BITMAP
1A
08
20
50
80
64
08
04
ENDCHAR
STARTCHAR eta
ENCODING 951
SWIDTH 577 0
DWIDTH 5 0
BBX 4 7 0 -2
BITMAP
05
26
62
52
82
05
05
ENDCHAR
STARTCHAR theta
ENCODING 952
SWIDTH 542 0
DWIDTH 4 0
BBX 4 6 0 0
BITMAP
1A
21
66
92
82
68
ENDCHAR
STARTCHAR iota
ENCODING 953
SWIDTH 305 0
DWIDTH 2 0
BBX 2 5 0 0
BITMAP
10
20
50
40
60
ENDCHAR
STARTCHAR kappa
ENCODING 954
SWIDTH 487 0
DWIDTH 4 0
BBX 4 5 0 0
BITMAP
11
25
64
58
89
ENDCHAR
STARTCHAR lambda
ENCODING 955
SWIDTH 482 0
DWIDTH 4 0
BBX 5 6 -1 0
BITMAP
0900
0200
0600
0A00
2200
6240
ENDCHAR
STARTCHAR uni03BC
ENCODING 956
SWIDTH 583 0
DWIDTH 5 0
BBX 5 7 0 -2
BITMAP
1000
2140
5200
5200
A600
8000
8000
ENDCHAR
STARTCHAR nu
ENCODING 957
SWIDTH 488 0
DWIDTH 4 0
BBX 4 5 0 0
BITMAP
01
82
55
58
34
ENDCHAR
STARTCHAR xi
ENCODING 958
SWIDTH 444 0
DWIDTH 4 0
BBX 4 8 0 -2
BITMAP
19
20
18
60
80
60
08
04
ENDCHAR
STARTCHAR omicron
ENCODING 959
SWIDTH 561 0
DWIDTH 4 0
BBX 4 5 0 0
BITMAP
04
26
52
82
69
ENDCHAR
STARTCHAR pi
ENCODING 960
SWIDTH 600 0
DWIDTH 5 0
BBX 5 5 0 0
BITMAP
1540
6640
2200
5200
8200
ENDCHAR
STARTCHAR rho
ENCODING 961
SWIDTH 570 0
DWIDTH 5 0
BBX 4 7 0 -2
BITMAP
04
26
52
52
A9
80
80
ENDCHAR
STARTCHAR sigma1
ENCODING 962
SWIDTH 453 0
DWIDTH 4 0
BBX 4 7 0 -2
BITMAP
04
25
50
80
64
08
04
ENDCHAR
STARTCHAR sigma
ENCODING 963
SWIDTH 581 0
DWIDTH 5 0
BBX 5 5 0 0
BITMAP
0540
2640
5200
8200
6900
ENDCHAR
STARTCHAR tau
ENCODING 964
SWIDTH 417 0
DWIDTH 3 0
BBX 3 5 0 0
BITMAP
14
64
20
20
24
ENDCHAR
STARTCHAR upsilon
ENCODING 965
SWIDTH 576 0
DWIDTH 5 0
BBX 5 5 0 0
BITMAP
1000
2140
5200
5200
6900
ENDCHAR
STARTCHAR phi
ENCODING 966
SWIDTH 669 0
DWIDTH 5 0
BBX 5 7 0 -2
BITMAP
0100
2580
5880
8880
6E00
1400
1400
ENDCHAR
STARTCHAR chi
ENCODING 967
SWIDTH 502 0
DWIDTH 4 0
BBX 5 6 -1 -2
BITMAP
0880
0A00
0900
0900
2500
5200
ENDCHAR
STARTCHAR psi
ENCODING 968
SWIDTH 713 0
DWIDTH 6 0
BBX 6 8 0 -2
BITMAP
0200
1200
2550
5550
5880
2E40
0800
1400
ENDCHAR
STARTCHAR omega
ENCODING 969
SWIDTH 729 0
DWIDTH 6 0
BBX 6 5 0 0
BITMAP
1000
2050
5550
8850
6A80
ENDCHAR
STARTCHAR iotadieresis
ENCODING 970
SWIDTH 305 0
DWIDTH 2 0
BBX 3 6 0 0
BITMAP
44
10
20
50
40
60
ENDCHAR
STARTCHAR upsilondieresis
ENCODING 971
SWIDTH 576 0
DWIDTH 5 0
BBX 5 6 0 0
BITMAP
0500
1000
2140
5200
5200
6900
ENDCHAR
STARTCHAR omicrontonos
ENCODING 972
SWIDTH 561 0
DWIDTH 4 0
BBX 4 7 0 0
BITMAP
01
05
04
26
52
82
69
ENDCHAR
STARTCHAR upsilontonos
ENCODING 973
SWIDTH 576 0
DWIDTH 5 0
BBX 5 7 0 0
BITMAP
0100
0500
1000
2140
5200
5200
6900
ENDCHAR
STARTCHAR omegatonos
ENCODING 974
SWIDTH 729 0
DWIDTH 6 0
BBX 6 7 0 0
BITMAP
0040
0200
1000
2050
5550
8850
6A80
ENDCHAR
STARTCHAR uni03D1
ENCODING 977
SWIDTH 569 0
DWIDTH 5 0
BBX 5 6 0 0
BITMAP
1A00
2500
4640
5200
8200
6800
ENDCHAR
STARTCHAR uni03D2
ENCODING 978
SWIDTH 509 0
DWIDTH 4 0
BBX 4 6 1 0
BITMAP
45
88
90
60
50
80
ENDCHAR
STARTCHAR uni03D6
ENCODING 982
SWIDTH 791 0
DWIDTH 6 0
BBX 6 5 0 0
BITMAP
1550
2560
2020
5550
6A80
ENDCHAR
STARTCHAR uni0400
ENCODING 1024
SWIDTH 511 0
DWIDTH 4 0
BBX 5 8 0 0
BITMAP
0400
0500
1A40
2000
2500
2500
5000
A800
ENDCHAR
STARTCHAR afii10023
ENCODING 1025
SWIDTH 511 0
DWIDTH 4 0
BBX 5 7 0 0
BITMAP
0500
1A40
2000
2500
2500
5000
A800
ENDCHAR
STARTCHAR afii10051
ENCODING 1026
SWIDTH 666 0
DWIDTH 5 0
BBX 4 6 1 0
BITMAP
A9
20
64
96
82
99
ENDCHAR
STARTCHAR afii10052
ENCODING 1027
SWIDTH 476 0
DWIDTH 4 0
BBX 5 8 0 0
BITMAP
0100
0100
1A40
2000
2000
2000
5000
8000
ENDCHAR
STARTCHAR afii10053
ENCODING 1028
SWIDTH 584 0
DWIDTH 5 0
BBX 5 6 0 0
BITMAP
0A80
2400
2500
6500
5000
2A00
ENDCHAR
STARTCHAR afii10054
ENCODING 1029
SWIDTH 501 0
DWIDTH 4 0
BBX 4 6 0 0
BITMAP
1A
20
20
09
06
A8
ENDCHAR
STARTCHAR afii10055
ENCODING 1030
SWIDTH 272 0
DWIDTH 2 0
BBX 2 6 0 0
BITMAP
10
20
20
20
50
80
ENDCHAR
STARTCHAR afii10056
ENCODING 1031
SWIDTH 272 0
DWIDTH 2 0
BBX 3 7 0 0
BITMAP
14
10
20
20
20
50
80
ENDCHAR
STARTCHAR afii10057
ENCODING 1032
SWIDTH 267 0
DWIDTH 2 0
BBX 3 8 -1 -2
BITMAP
04
08
08
08
14
20
60
40
ENDCHAR
STARTCHAR afii10058
ENCODING 1033
SWIDTH 889 0
DWIDTH 7 0
BBX 7 6 0 0
BITMAP
0680
0880
1490
15A4
2208
92A0
ENDCHAR
STARTCHAR afii10059
ENCODING 1034
SWIDTH 901 0
DWIDTH 7 0
BBX 7 6 0 0
BITMAP
1040
2080
2590
2698
5148
82A4
ENDCHAR
STARTCHAR afii10060
ENCODING 1035
SWIDTH 666 0
DWIDTH 5 0
BBX 4 6 1 0
BITMAP
A9
20
64
96
82
85
ENDCHAR
STARTCHAR afii10061
ENCODING 1036
SWIDTH 559 0
DWIDTH 4 0
BBX 5 8 0 0
BITMAP
0100
0100
1080
2200
2800
2800
5900
8200
ENDCHAR
STARTCHAR uni040D
ENCODING 1037
SWIDTH 696 0
DWIDTH 6 0
BBX 6 8 0 0
BITMAP
0100
0100
1050
2090
2280
1880
6480
9080
ENDCHAR
STARTCHAR afii10062
ENCODING 1038
SWIDTH 571 0
DWIDTH 5 0
BBX 5 8 0 0
BITMAP
0040
0A40
1040
2180
2200
1900
0800
A000
ENDCHAR
STARTCHAR afii10145
ENCODING 1039
SWIDTH 679 0
DWIDTH 5 0
BBX 6 8 0 -2
BITMAP
1050
2050
2080
2080
5080
AA40
0800
0400
ENDCHAR
STARTCHAR afii10017
ENCODING 1040
SWIDTH 555 0
DWIDTH 4 0
BBX 5 6 -1 0
BITMAP
0140
0240
0980
0980
2580
6080
ENDCHAR
STARTCHAR afii10018
ENCODING 1041
SWIDTH 563 0
DWIDTH 5 0
BBX 5 6 0 0
BITMAP
1A40
2000
2400
2600
5200
A900
ENDCHAR
STARTCHAR afii10019
ENCODING 1042
SWIDTH 598 0
DWIDTH 5 0
BBX 5 6 0 0
BITMAP
1A40
2080
2540
2600
5140
AA00
ENDCHAR
STARTCHAR afii10020
ENCODING 1043
SWIDTH 476 0
DWIDTH 4 0
BBX 5 6 0 0
BITMAP
1A40
2000
2000
2000
5000
8000
ENDCHAR
STARTCHAR afii10021
ENCODING 1044
SWIDTH 621 0
DWIDTH 5 0
BBX 6 8 -1 -2
BITMAP
01A0
0220
0650
0850
1480
7AD0
4050
4040
ENDCHAR
STARTCHAR afii10022
ENCODING 1045
SWIDTH 511 0
DWIDTH 4 0
BBX 5 6 0 0
BITMAP
1A40
2000
2500
2500
5000
A800
ENDCHAR
STARTCHAR afii10024
ENCODING 1046
SWIDTH 775 0
DWIDTH 6 0
BBX 7 6 0 0
BITMAP
2104
2620
0A80
1A80
2580
8860
ENDCHAR
STARTCHAR afii10025
ENCODING 1047
SWIDTH 532 0
DWIDTH 4 0
BBX 4 6 0 0
BITMAP
2A
02
16
15
02
A9
ENDCHAR
STARTCHAR afii10026
ENCODING 1048
SWIDTH 696 0
DWIDTH 6 0
BBX 6 6 0 0
BITMAP
1050
2090
2280
1880
6480
9080
ENDCHAR
STARTCHAR afii10027
ENCODING 1049
SWIDTH 696 0
DWIDTH 6 0
BBX 6 8 0 0
BITMAP
0440
0640
1050
2090
2280
1880
6480
9080
ENDCHAR
STARTCHAR afii10028
ENCODING 1050
SWIDTH 559 0
DWIDTH 4 0
BBX 5 6 0 0
BITMAP
1080
2200
2800
2800
5900
8200
ENDCHAR
STARTCHAR afii10029
ENCODING 1051
SWIDTH 644 0
DWIDTH 5 0
BBX 5 6 0 0
BITMAP
0680
0880
1480
1480
2140
9200
ENDCHAR
STARTCHAR afii10030
ENCODING 1052
SWIDTH 836 0
DWIDTH 7 0
BBX 7 6 0 0
BITMAP
1414
2824
2864
1860
5A20
8520
ENDCHAR
STARTCHAR afii10031
ENCODING 1053
SWIDTH 678 0
DWIDTH 5 0
BBX 6 6 0 0
BITMAP
1050
2050
2580
2580
5080
8140
ENDCHAR
STARTCHAR afii10032
ENCODING 1054
SWIDTH 720 0
DWIDTH 6 0
BBX 6 6 0 0
BITMAP
0A40
2050
6050
5050
5080
2A40
ENDCHAR
STARTCHAR afii10033
ENCODING 1055
SWIDTH 679 0
DWIDTH 5 0
BBX 6 6 0 0
BITMAP
1A90
2050
2080
2080
5080
8140
ENDCHAR
STARTCHAR afii10034
ENCODING 1056
SWIDTH 565 0
DWIDTH 5 0
BBX 5 6 0 0
BITMAP
1A00
2140
2140
2900
5000
8000
ENDCHAR
STARTCHAR afii10035
ENCODING 1057
SWIDTH 584 0
DWIDTH 5 0
BBX 5 6 0 0
BITMAP
0A80
2400
2000
5000
5000
2A00
ENDCHAR
STARTCHAR afii10036
ENCODING 1058
SWIDTH 498 0
DWIDTH 4 0
BBX 4 6 1 0
BITMAP
A9
20
20
50
50
80
ENDCHAR
STARTCHAR afii10037
ENCODING 1059
SWIDTH 571 0
DWIDTH 5 0
BBX 5 6 0 0
BITMAP
1040
2180
2200
1900
0800
A000
ENDCHAR
STARTCHAR afii10038
ENCODING 1060
SWIDTH 744 0
DWIDTH 6 0
BBX 6 6 0 0
BITMAP
0200
1B90
6220
5520
2A80
0800
ENDCHAR
STARTCHAR afii10039
ENCODING 1061
SWIDTH 519 0
DWIDTH 4 0
BBX 5 6 0 0
BITMAP
1040
2200
1800
1800
5500
8200
ENDCHAR
STARTCHAR afii10040
ENCODING 1062
SWIDTH 665 0
DWIDTH 5 0
BBX 6 8 0 -2
BITMAP
1050
2080
2080
2080
5140
AA80
0080
0040
ENDCHAR
STARTCHAR afii10041
ENCODING 1063
SWIDTH 639 0
DWIDTH 5 0
BBX 4 6 1 0
BITMAP
41
82
82
A9
05
08
ENDCHAR
STARTCHAR afii10042
ENCODING 1064
SWIDTH 955 0
DWIDTH 8 0
BBX 8 6 0 0
BITMAP
1041
2085
2145
2148
5208
ABA8
ENDCHAR
STARTCHAR afii10043
ENCODING 1065
SWIDTH 957 0
DWIDTH 8 0
BBX 8 8 0 -2
BITMAP
1041
2085
2145
2148
5208
ABAC
0008
0004
ENDCHAR
STARTCHAR afii10044
ENCODING 1066
SWIDTH 625 0
DWIDTH 5 0
BBX 4 6 1 0
BITMAP
A0
20
60
99
85
E8
ENDCHAR
STARTCHAR afii10045
ENCODING 1067
SWIDTH 786 0
DWIDTH 6 0
BBX 7 6 0 0
BITMAP
1014
2020
2420
2620
5250
A950
ENDCHAR
STARTCHAR afii10046
ENCODING 1068
SWIDTH 554 0
DWIDTH 4 0
BBX 4 6 0 0
BITMAP
10
20
24
26
52
A9
ENDCHAR
STARTCHAR afii10047
ENCODING 1069
SWIDTH 584 0
DWIDTH 5 0
BBX 5 6 0 0
BITMAP
2900
0240
1640
1640
0200
A900
ENDCHAR
STARTCHAR afii10048
ENCODING 1070
SWIDTH 979 0
DWIDTH 8 0
BBX 8 6 0 0
BITMAP
1068
2245
2602
2605
5208
82A4
ENDCHAR
STARTCHAR afii10049
ENCODING 1071
SWIDTH 568 0
DWIDTH 5 0
BBX 5 6 0 0
BITMAP
1A40
2140
2200
2A00
6200
8500
ENDCHAR
STARTCHAR afii10065
ENCODING 1072
SWIDTH 564 0
DWIDTH 5 0
BBX 5 5 0 0
BITMAP
0400
2640
5200
8200
6600
ENDCHAR
STARTCHAR afii10066
ENCODING 1073
SWIDTH 541 0
DWIDTH 4 0
BBX 5 6 0 0
BITMAP
0A40
2000
6A00
9200
8200
6900
ENDCHAR
STARTCHAR afii10067
ENCODING 1074
SWIDTH 538 0
DWIDTH 4 0
BBX 4 5 0 0
BITMAP
04
26
A6
96
69
ENDCHAR
STARTCHAR afii10068
ENCODING 1075
SWIDTH 457 0
DWIDTH 4 0
BBX 4 5 0 0
BITMAP
14
15
18
90
A4
ENDCHAR
STARTCHAR afii10069
ENCODING 1076
SWIDTH 562 0
DWIDTH 5 0
BBX 5 6 0 0
BITMAP
1600
0200
2640
5200
8200
6800
ENDCHAR
STARTCHAR afii10070
ENCODING 1077
SWIDTH 493 0
DWIDTH 4 0
BBX 4 5 0 0
BITMAP
04
26
69
90
68
ENDCHAR
STARTCHAR afii10072
ENCODING 1078
SWIDTH 833 0
DWIDTH 7 0
BBX 7 5 0 0
BITMAP
1004
2664
1A80
1680
A560
ENDCHAR
STARTCHAR afii10073
ENCODING 1079
SWIDTH 436 0
DWIDTH 3 0
BBX 4 5 0 0
BITMAP
14
19
18
08
A8
ENDCHAR
STARTCHAR afii10074
ENCODING 1080
SWIDTH 577 0
DWIDTH 5 0
BBX 5 5 0 0
BITMAP
1000
2140
5200
5200
6A00
ENDCHAR
STARTCHAR afii10075
ENCODING 1081
SWIDTH 577 0
DWIDTH 5 0
BBX 5 6 0 0
BITMAP
1A40
1000
2140
5200
5200
6A00
ENDCHAR
STARTCHAR afii10076
ENCODING 1082
SWIDTH 477 0
DWIDTH 4 0
BBX 4 5 0 0
BITMAP
11
25
64
58
89
ENDCHAR
STARTCHAR afii10077
ENCODING 1083
SWIDTH 537 0
DWIDTH 4 0
BBX 5 5 -1 0
BITMAP
0140
0580
0880
1540
6140
ENDCHAR
STARTCHAR afii10078
ENCODING 1084
SWIDTH 689 0
DWIDTH 6 0
BBX 5 5 0 0
BITMAP
1000
30C0
6180
5580
8840
ENDCHAR
STARTCHAR afii10079
ENCODING 1085
SWIDTH 599 0
DWIDTH 5 0
BBX 5 5 0 0
BITMAP
1000
2140
6640
5200
8200
ENDCHAR
STARTCHAR afii10080
ENCODING 1086
SWIDTH 561 0
DWIDTH 4 0
BBX 4 5 0 0
BITMAP
04
26
52
82
69
ENDCHAR
STARTCHAR afii10081
ENCODING 1087
SWIDTH 577 0
DWIDTH 5 0
BBX 4 5 0 0
BITMAP
05
26
62
52
82
ENDCHAR
STARTCHAR afii10082
ENCODING 1088
SWIDTH 577 0
DWIDTH 5 0
BBX 5 7 0 -2
BITMAP
0500
2600
6240
5200
A900
8000
8000
ENDCHAR
STARTCHAR afii10083
ENCODING 1089
SWIDTH 450 0
DWIDTH 4 0
BBX 4 5 0 0
BITMAP
04
25
50
80
68
ENDCHAR
STARTCHAR afii10084
ENCODING 1090
SWIDTH 872 0
DWIDTH 7 0
BBX 7 5 0 0
BITMAP
0410
2654
6214
5214
8520
ENDCHAR
STARTCHAR afii10085
ENCODING 1091
SWIDTH 461 0
DWIDTH 4 0
BBX 5 7 -1 -2
BITMAP
0040
1080
1600
1A00
0C00
1400
6000
ENDCHAR
STARTCHAR afii10086
ENCODING 1092
SWIDTH 663 0
DWIDTH 5 0
BBX 5 8 0 -2
BITMAP
0200
0600
2980
5880
8880
6A00
1400
1400
ENDCHAR
STARTCHAR afii10087
ENCODING 1093
SWIDTH 478 0
DWIDTH 4 0
BBX 4 5 0 0
BITMAP
01
25
28
28
88
ENDCHAR
STARTCHAR afii10088
ENCODING 1094
SWIDTH 595 0
DWIDTH 5 0
BBX 5 7 0 -2
BITMAP
1000
2140
5200
5200
6600
0200
0100
ENDCHAR
STARTCHAR afii10089
ENCODING 1095
SWIDTH 555 0
DWIDTH 4 0
BBX 4 4 0 0
BITMAP
52
56
16
05
ENDCHAR
STARTCHAR afii10090
ENCODING 1096
SWIDTH 872 0
DWIDTH 7 0
BBX 7 5 0 0
BITMAP
1004
2208
5214
4220
66A0
ENDCHAR
STARTCHAR afii10091
ENCODING 1097
SWIDTH 890 0
DWIDTH 7 0
BBX 7 7 0 -2
BITMAP
1004
2208
5214
5220
66A4
0014
0010
ENDCHAR
STARTCHAR afii10092
ENCODING 1098
SWIDTH 591 0
DWIDTH 5 0
BBX 5 5 0 0
BITMAP
1000
6400
2900
2240
2A00
ENDCHAR
STARTCHAR afii10093
ENCODING 1099
SWIDTH 721 0
DWIDTH 6 0
BBX 6 5 0 0
BITMAP
1000
2050
6480
5580
6980
ENDCHAR
STARTCHAR afii10094
ENCODING 1100
SWIDTH 519 0
DWIDTH 4 0
BBX 4 5 0 0
BITMAP
10
20
64
56
69
ENDCHAR
STARTCHAR afii10095
ENCODING 1101
SWIDTH 456 0
DWIDTH 4 0
BBX 4 5 0 0
BITMAP
10
18
19
08
A4
ENDCHAR
STARTCHAR afii10096
ENCODING 1102
SWIDTH 780 0
DWIDTH 6 0
BBX 6 5 0 0
BITMAP
1040
2260
6820
5820
8680
ENDCHAR
STARTCHAR afii10097
ENCODING 1103
SWIDTH 526 0
DWIDTH 4 0
BBX 4 5 0 0
BITMAP
05
26
66
29
85
ENDCHAR
STARTCHAR uni0450
ENCODING 1104
SWIDTH 493 0
DWIDTH 4 0
BBX 4 6 0 0
BITMAP
08
04
26
69
90
68
ENDCHAR
STARTCHAR afii10071
ENCODING 1105
SWIDTH 493 0
DWIDTH 4 0
BBX 4 6 0 0
BITMAP
15
04
26
69
90
68
ENDCHAR
STARTCHAR afii10099
ENCODING 1106
SWIDTH 577 0
DWIDTH 5 0
BBX 4 8 0 -2
BITMAP
24
24
26
62
52
82
05
18
ENDCHAR
STARTCHAR afii10100
ENCODING 1107
SWIDTH 457 0
DWIDTH 4 0
BBX 4 6 0 0
BITMAP
05
14
15
18
90
A4
ENDCHAR
STARTCHAR afii10101
ENCODING 1108
SWIDTH 450 0
DWIDTH 4 0
BBX 4 5 0 0
BITMAP
04
25
64
90
68
ENDCHAR
STARTCHAR afii10102
ENCODING 1109
SWIDTH 428 0
DWIDTH 3 0
BBX 3 5 0 0
BITMAP
14
64
60
08
A8
ENDCHAR
STARTCHAR afii10103
ENCODING 1110
SWIDTH 253 0
DWIDTH 2 0
BBX 2 6 0 0
BITMAP
10
10
20
50
50
80
ENDCHAR
STARTCHAR afii10104
ENCODING 1111
SWIDTH 253 0
DWIDTH 2 0
BBX 3 6 0 0
BITMAP
54
10
20
50
50
80
ENDCHAR
STARTCHAR afii10105
ENCODING 1112
SWIDTH 253 0
DWIDTH 2 0
BBX 3 8 -1 -2
BITMAP
04
04
08
14
14
20
20
90
ENDCHAR
STARTCHAR afii10106
ENCODING 1113
SWIDTH 762 0
DWIDTH 6 0
BBX 7 5 -1 0
BITMAP
0140
0580
0990
1558
61A4
ENDCHAR
STARTCHAR afii10107
ENCODING 1114
SWIDTH 812 0
DWIDTH 7 0
BBX 6 5 0 0
BITMAP
1000
2200
6650
5220
82A0
ENDCHAR
STARTCHAR afii10108
ENCODING 1115
SWIDTH 577 0
DWIDTH 5 0
BBX 4 6 0 0
BITMAP
24
25
26
62
52
82
ENDCHAR
STARTCHAR afii10109
ENCODING 1116
SWIDTH 477 0
DWIDTH 4 0
BBX 4 6 0 0
BITMAP
05
11
25
64
58
89
ENDCHAR
STARTCHAR uni045D
ENCODING 1117
SWIDTH 577 0
DWIDTH 5 0
BBX 5 6 0 0
BITMAP
0800
1000
2140
5200
5200
6A00
ENDCHAR
STARTCHAR afii10110
ENCODING 1118
SWIDTH 461 0
DWIDTH 4 0
BBX 5 8 -1 -2
BITMAP
0980
0040
1080
1600
1A00
0C00
1400
6000
ENDCHAR
STARTCHAR afii10193
ENCODING 1119
SWIDTH 577 0
DWIDTH 5 0
BBX 5 7 0 -2
BITMAP
1000
2140
5200
5200
6A00
1000
2000
ENDCHAR
STARTCHAR uni0460
ENCODING 1120
SWIDTH 953 0
DWIDTH 8 0
BBX 8 6 0 0
BITMAP
0A28
2005
2005
5108
5208
2AA0
ENDCHAR
STARTCHAR uni0461
ENCODING 1121
SWIDTH 717 0
DWIDTH 6 0
BBX 6 5 0 0
BITMAP
0010
8520
5550
5980
3340
ENDCHAR
STARTCHAR uni0462
ENCODING 1122
SWIDTH 619 0
DWIDTH 5 0
BBX 5 6 0 0
BITMAP
0800
6A00
1400
2640
2140
3A00
ENDCHAR
STARTCHAR uni0463
ENCODING 1123
SWIDTH 551 0
DWIDTH 4 0
BBX 4 5 0 0
BITMAP
24
64
25
62
29
ENDCHAR
STARTCHAR uni0464
ENCODING 1124
SWIDTH 860 0
DWIDTH 7 0
BBX 7 6 0 0
BITMAP
1068
2140
2650
2650
5200
82A0
ENDCHAR
STARTCHAR uni0465
ENCODING 1125
SWIDTH 687 0
DWIDTH 6 0
BBX 5 5 0 0
BITMAP
1040
2240
6A40
5800
8640
ENDCHAR
STARTCHAR uni0466
ENCODING 1126
SWIDTH 601 0
DWIDTH 5 0
BBX 6 6 -1 0
BITMAP
0140
0280
0680
0A80
2250
6550
ENDCHAR
STARTCHAR uni0467
ENCODING 1127
SWIDTH 528 0
DWIDTH 4 0
BBX 4 5 0 0
BITMAP
04
18
29
65
A2
ENDCHAR
STARTCHAR uni0468
ENCODING 1128
SWIDTH 840 0
DWIDTH 7 0
BBX 7 6 0 0
BITMAP
1050
20A0
2660
26A0
58A0
9554
ENDCHAR
STARTCHAR uni0469
ENCODING 1129
SWIDTH 721 0
DWIDTH 6 0
BBX 5 5 0 0
BITMAP
1000
2280
6A80
5A80
A640
ENDCHAR
STARTCHAR uni046A
ENCODING 1130
SWIDTH 660 0
DWIDTH 5 0
BBX 6 6 0 0
BITMAP
1A90
1480
0A00
2980
8880
8880
ENDCHAR
STARTCHAR uni046B
ENCODING 1131
SWIDTH 603 0
DWIDTH 5 0
BBX 6 5 -1 0
BITMAP
0550
0990
0A40
2680
6550
ENDCHAR
STARTCHAR uni046C
ENCODING 1132
SWIDTH 915 0
DWIDTH 7 0
BBX 8 6 0 0
BITMAP
11A9
2148
25A0
2698
5888
9888
ENDCHAR
STARTCHAR uni046D
ENCODING 1133
SWIDTH 800 0
DWIDTH 6 0
BBX 6 5 0 0
BITMAP
1150
2660
6680
5960
A620
ENDCHAR
STARTCHAR uni046E
ENCODING 1134
SWIDTH 532 0
DWIDTH 4 0
BBX 5 9 -1 -2
BITMAP
0180
0A80
0080
0580
0540
0080
1640
6400
1A00
ENDCHAR
STARTCHAR uni046F
ENCODING 1135
SWIDTH 446 0
DWIDTH 4 0
BBX 5 7 -1 -2
BITMAP
0A00
0640
0600
0200
1600
6400
1500
ENDCHAR
STARTCHAR uni0470
ENCODING 1136
SWIDTH 734 0
DWIDTH 6 0
BBX 6 6 0 0
BITMAP
1110
2220
5220
2A90
0900
0800
ENDCHAR
STARTCHAR uni0471
ENCODING 1137
SWIDTH 713 0
DWIDTH 6 0
BBX 6 8 0 -2
BITMAP
0200
1200
2550
5550
5880
2E40
0800
1400
ENDCHAR
STARTCHAR uni0472
ENCODING 1138
SWIDTH 720 0
DWIDTH 6 0
BBX 6 6 0 0
BITMAP
0A40
2050
6550
6590
5080
2A40
ENDCHAR
STARTCHAR uni0473
ENCODING 1139
SWIDTH 561 0
DWIDTH 4 0
BBX 4 5 0 0
BITMAP
04
26
66
92
69
ENDCHAR
STARTCHAR uni0474
ENCODING 1140
SWIDTH 559 0
DWIDTH 4 0
BBX 5 6 1 0
BITMAP
4240
8500
8800
9400
A000
9000
ENDCHAR
STARTCHAR uni0475
ENCODING 1141
SWIDTH 439 0
DWIDTH 4 0
BBX 4 5 0 0
BITMAP
41
86
58
54
70
ENDCHAR
STARTCHAR uni0476
ENCODING 1142
SWIDTH 559 0
DWIDTH 4 0
BBX 5 8 1 0
BITMAP
5400
5400
4240
8500
8800
9400
A000
9000
ENDCHAR
STARTCHAR uni0477
ENCODING 1143
SWIDTH 439 0
DWIDTH 4 0
BBX 4 6 0 0
BITMAP
18
41
86
58
54
70
ENDCHAR
STARTCHAR uni0478
ENCODING 1144
SWIDTH 1184 0
DWIDTH 9 0
BBX 10 8 0 -2
BITMAP
0A4000
205410
605850
505880
508540
2A4600
000500
002400
ENDCHAR
STARTCHAR uni0479
ENCODING 1145
SWIDTH 1003 0
DWIDTH 8 0
BBX 8 7 0 -2
BITMAP
0400
2612
5225
8228
6924
0020
0190
ENDCHAR
STARTCHAR uni047A
ENCODING 1146
SWIDTH 738 0
DWIDTH 6 0
BBX 6 7 0 -1
BITMAP
0B80
2050
6020
5060
5090
2A40
0400
ENDCHAR
STARTCHAR uni047B
ENCODING 1147
SWIDTH 578 0
DWIDTH 5 0
BBX 5 5 0 0
BITMAP
0800
2600
5140
8200
6900
ENDCHAR
STARTCHAR uni047C
ENCODING 1148
SWIDTH 953 0
DWIDTH 8 0
BBX 8 8 0 0
BITMAP
01A4
0040
0A28
2005
2005
5008
5008
2AA0
ENDCHAR
STARTCHAR uni047D
ENCODING 1149
SWIDTH 758 0
DWIDTH 6 0
BBX 6 7 0 0
BITMAP
0640
0100
0440
2460
5020
8050
6A80
ENDCHAR
STARTCHAR uni047E
ENCODING 1150
SWIDTH 953 0
DWIDTH 8 0
BBX 8 7 0 0
BITMAP
0150
0A28
2005
2005
5108
5208
2AA0
ENDCHAR
STARTCHAR uni047F
ENCODING 1151
SWIDTH 717 0
DWIDTH 6 0
BBX 6 6 0 0
BITMAP
1540
0010
8520
5550
5980
3340
ENDCHAR
STARTCHAR uni0480
ENCODING 1152
SWIDTH 584 0
DWIDTH 5 0
BBX 5 8 0 -2
BITMAP
0A80
2400
2000
5000
5000
2800
0800
0800
ENDCHAR
STARTCHAR uni0481
ENCODING 1153
SWIDTH 450 0
DWIDTH 4 0
BBX 4 7 0 -2
BITMAP
04
25
50
80
64
08
14
ENDCHAR
STARTCHAR uni0482
ENCODING 1154
SWIDTH 608 0
DWIDTH 5 0
BBX 5 5 0 0
BITMAP
0200
0A00
5940
2800
2000
ENDCHAR
STARTCHAR uni0483
ENCODING 1155
SWIDTH 560 0
DWIDTH 4 0
BBX 3 2 1 4
BITMAP
54
40
ENDCHAR
STARTCHAR uni0484
ENCODING 1156
SWIDTH 580 0
DWIDTH 5 0
BBX 4 1 1 5
BITMAP
55
ENDCHAR
STARTCHAR uni0485
ENCODING 1157
SWIDTH 580 0
DWIDTH 5 0
BBX 2 1 2 5
BITMAP
50
ENDCHAR
STARTCHAR uni0486
ENCODING 1158
SWIDTH 580 0
DWIDTH 5 0
BBX 2 1 2 5
BITMAP
50
ENDCHAR
STARTCHAR uni0488
ENCODING 1160
SWIDTH 988 0
DWIDTH 8 0
BBX 8 7 0 -1
BITMAP
0140
1004
0000
5005
0000
1014
0140
ENDCHAR
STARTCHAR uni0489
ENCODING 1161
SWIDTH 956 0
DWIDTH 8 0
BBX 7 8 0 -2
BITMAP
0100
1114
0010
5004
0000
1410
1104
0100
ENDCHAR
STARTCHAR uni048A
ENCODING 1162
SWIDTH 703 0
DWIDTH 6 0
BBX 6 10 0 -2
BITMAP
0440
0640
1050
2090
2280
1880
6480
9080
0080
0100
ENDCHAR
STARTCHAR uni048B
ENCODING 1163
SWIDTH 579 0
DWIDTH 5 0
BBX 5 8 0 -2
BITMAP
1A40
1000
2140
5200
5200
6B00
0200
0100
ENDCHAR
STARTCHAR uni048C
ENCODING 1164
SWIDTH 553 0
DWIDTH 4 0
BBX 4 6 0 0
BITMAP
10
38
24
26
52
A9
ENDCHAR
STARTCHAR uni048D
ENCODING 1165
SWIDTH 519 0
DWIDTH 4 0
BBX 4 6 0 0
BITMAP
20
24
20
64
56
69
ENDCHAR
STARTCHAR uni048E
ENCODING 1166
SWIDTH 565 0
DWIDTH 5 0
BBX 5 6 0 0
BITMAP
1A00
2140
2640
2A00
5000
8000
ENDCHAR
STARTCHAR uni048F
ENCODING 1167
SWIDTH 577 0
DWIDTH 5 0
BBX 5 7 0 -2
BITMAP
0500
2600
6240
5200
AD00
8400
8000
ENDCHAR
STARTCHAR afii10050
ENCODING 1168
SWIDTH 476 0
DWIDTH 4 0
BBX 5 7 0 0
BITMAP
0040
1A40
2000
2000
2000
5000
8000
ENDCHAR
STARTCHAR afii10098
ENCODING 1169
SWIDTH 382 0
DWIDTH 3 0
BBX 4 6 0 0
BITMAP
01
15
24
50
50
80
ENDCHAR
STARTCHAR uni0492
ENCODING 1170
SWIDTH 471 0
DWIDTH 4 0
BBX 5 6 0 0
BITMAP
1A40
2000
2000
6400
5000
8000
ENDCHAR
STARTCHAR uni0493
ENCODING 1171
SWIDTH 382 0
DWIDTH 3 0
BBX 3 5 0 0
BITMAP
14
24
60
90
80
ENDCHAR
STARTCHAR uni0494
ENCODING 1172
SWIDTH 603 0
DWIDTH 5 0
BBX 5 8 0 -2
BITMAP
1A40
2000
2000
2A00
5200
8200
0200
6900
ENDCHAR
STARTCHAR uni0495
ENCODING 1173
SWIDTH 491 0
DWIDTH 4 0
BBX 4 7 0 -2
BITMAP
14
24
64
59
85
08
64
ENDCHAR
STARTCHAR uni0496
ENCODING 1174
SWIDTH 821 0
DWIDTH 7 0
BBX 7 8 0 -2
BITMAP
2104
2620
0A80
1A80
2580
8860
0020
0010
ENDCHAR
STARTCHAR uni0497
ENCODING 1175
SWIDTH 837 0
DWIDTH 7 0
BBX 7 7 0 -2
BITMAP
1004
2664
1A80
1680
A560
0020
0010
ENDCHAR
STARTCHAR uni0498
ENCODING 1176
SWIDTH 532 0
DWIDTH 4 0
BBX 4 8 0 -2
BITMAP
2A
02
16
15
02
A9
10
10
ENDCHAR
STARTCHAR uni0499
ENCODING 1177
SWIDTH 436 0
DWIDTH 3 0
BBX 4 7 0 -2
BITMAP
14
19
18
08
A8
20
50
ENDCHAR
STARTCHAR uni049A
ENCODING 1178
SWIDTH 600 0
DWIDTH 5 0
BBX 5 8 0 -2
BITMAP
1080
2200
2800
2800
5900
8240
0100
0100
ENDCHAR
STARTCHAR uni049B
ENCODING 1179
SWIDTH 520 0
DWIDTH 4 0
BBX 4 7 0 -2
BITMAP
11
25
64
54
89
02
01
ENDCHAR
STARTCHAR uni049C
ENCODING 1180
SWIDTH 559 0
DWIDTH 4 0
BBX 5 6 0 0
BITMAP
1080
2600
2800
2C00
6900
8200
ENDCHAR
STARTCHAR uni049D
ENCODING 1181
SWIDTH 475 0
DWIDTH 4 0
BBX 4 5 0 0
BITMAP
11
29
64
64
98
ENDCHAR
STARTCHAR uni049E
ENCODING 1182
SWIDTH 557 0
DWIDTH 4 0
BBX 5 6 0 0
BITMAP
1040
3600
2800
2800
5500
8200
ENDCHAR
STARTCHAR uni049F
ENCODING 1183
SWIDTH 478 0
DWIDTH 4 0
BBX 4 6 0 0
BITMAP
24
21
25
64
58
89
ENDCHAR
STARTCHAR uni04A0
ENCODING 1184
SWIDTH 631 0
DWIDTH 5 0
BBX 5 6 1 0
BITMAP
A140
2600
6800
A000
8800
8500
ENDCHAR
STARTCHAR uni04A1
ENCODING 1185
SWIDTH 560 0
DWIDTH 4 0
BBX 5 5 0 0
BITMAP
5040
6600
2800
2800
2200
ENDCHAR
STARTCHAR uni04A2
ENCODING 1186
SWIDTH 676 0
DWIDTH 5 0
BBX 6 8 0 -2
BITMAP
1050
2050
2580
2580
5080
8180
0080
0040
ENDCHAR
STARTCHAR uni04A3
ENCODING 1187
SWIDTH 599 0
DWIDTH 5 0
BBX 5 7 0 -2
BITMAP
1000
2140
6600
5200
8200
0200
0100
ENDCHAR
STARTCHAR uni04A4
ENCODING 1188
SWIDTH 754 0
DWIDTH 6 0
BBX 7 6 0 0
BITMAP
1064
2050
2580
2580
5080
8140
ENDCHAR
STARTCHAR uni04A5
ENCODING 1189
SWIDTH 687 0
DWIDTH 6 0
BBX 6 5 0 0
BITMAP
1050
2190
6600
5200
8200
ENDCHAR
STARTCHAR uni04A6
ENCODING 1190
SWIDTH 996 0
DWIDTH 8 0
BBX 8 8 0 -2
BITMAP
1A90
2080
2080
20A8
5145
8145
0008
01A4
ENDCHAR
STARTCHAR uni04A7
ENCODING 1191
SWIDTH 817 0
DWIDTH 7 0
BBX 6 7 0 -2
BITMAP
1500
2640
5240
5220
8220
0020
0190
ENDCHAR
STARTCHAR uni04A8
ENCODING 1192
SWIDTH 720 0
DWIDTH 6 0
BBX 6 7 0 -1
BITMAP
0A40
2180
5250
5550
5580
2B80
0040
ENDCHAR
STARTCHAR uni04A9
ENCODING 1193
SWIDTH 599 0
DWIDTH 5 0
BBX 5 6 0 -1
BITMAP
0400
2500
9940
8A40
6E00
0100
ENDCHAR
STARTCHAR uni04AA
ENCODING 1194
SWIDTH 584 0
DWIDTH 5 0
BBX 5 8 0 -2
BITMAP
0A80
2400
2000
5000
5000
2A00
0800
1400
ENDCHAR
STARTCHAR uni04AB
ENCODING 1195
SWIDTH 450 0
DWIDTH 4 0
BBX 4 7 0 -2
BITMAP
04
25
50
80
68
10
10
ENDCHAR
STARTCHAR uni04AC
ENCODING 1196
SWIDTH 498 0
DWIDTH 4 0
BBX 4 8 1 -2
BITMAP
A9
20
20
50
50
90
50
40
ENDCHAR
STARTCHAR uni04AD
ENCODING 1197
SWIDTH 884 0
DWIDTH 7 0
BBX 7 7 0 -2
BITMAP
0410
2654
6214
5214
8524
0014
0010
ENDCHAR
STARTCHAR uni04AE
ENCODING 1198
SWIDTH 502 0
DWIDTH 4 0
BBX 4 6 1 0
BITMAP
41
88
94
60
50
80
ENDCHAR
STARTCHAR uni04AF
ENCODING 1199
SWIDTH 461 0
DWIDTH 4 0
BBX 4 7 0 -2
BITMAP
01
82
58
64
30
20
50
ENDCHAR
STARTCHAR uni04B0
ENCODING 1200
SWIDTH 502 0
DWIDTH 4 0
BBX 5 6 0 0
BITMAP
1040
2200
2500
1800
6900
2000
ENDCHAR
STARTCHAR uni04B1
ENCODING 1201
SWIDTH 461 0
DWIDTH 4 0
BBX 4 7 0 -2
BITMAP
01
82
58
64
30
A4
50
ENDCHAR
STARTCHAR uni04B2
ENCODING 1202
SWIDTH 568 0
DWIDTH 5 0
BBX 5 8 0 -2
BITMAP
1040
2200
1800
1800
5500
8200
0200
0100
ENDCHAR
STARTCHAR uni04B3
ENCODING 1203
SWIDTH 520 0
DWIDTH 4 0
BBX 4 7 0 -2
BITMAP
01
26
18
28
85
02
01
ENDCHAR
STARTCHAR uni04B4
ENCODING 1204
SWIDTH 776 0
DWIDTH 6 0
BBX 5 8 1 -2
BITMAP
A940
2080
2080
5080
5140
AA80
0080
0040
ENDCHAR
STARTCHAR uni04B5
ENCODING 1205
SWIDTH 657 0
DWIDTH 5 0
BBX 5 7 0 -2
BITMAP
1440
6480
2080
2140
2A80
0080
0040
ENDCHAR
STARTCHAR uni04B6
ENCODING 1206
SWIDTH 636 0
DWIDTH 5 0
BBX 4 7 1 -1
BITMAP
41
82
82
A9
05
09
05
ENDCHAR
STARTCHAR uni04B7
ENCODING 1207
SWIDTH 543 0
DWIDTH 4 0
BBX 4 6 0 -2
BITMAP
52
56
16
06
02
01
ENDCHAR
STARTCHAR uni04B8
ENCODING 1208
SWIDTH 639 0
DWIDTH 5 0
BBX 4 6 1 0
BITMAP
41
82
92
A9
25
08
ENDCHAR
STARTCHAR uni04B9
ENCODING 1209
SWIDTH 554 0
DWIDTH 4 0
BBX 4 4 0 0
BITMAP
52
5A
26
15
ENDCHAR
STARTCHAR uni04BA
ENCODING 1210
SWIDTH 639 0
DWIDTH 5 0
BBX 5 6 0 0
BITMAP
1000
2000
2A00
2140
5140
8200
ENDCHAR
STARTCHAR uni04BB
ENCODING 1211
SWIDTH 576 0
DWIDTH 5 0
BBX 4 5 0 0
BITMAP
10
20
69
52
82
ENDCHAR
STARTCHAR uni04BC
ENCODING 1212
SWIDTH 765 0
DWIDTH 6 0
BBX 6 6 0 0
BITMAP
0290
0820
6560
2540
2400
0A80
ENDCHAR
STARTCHAR uni04BD
ENCODING 1213
SWIDTH 592 0
DWIDTH 5 0
BBX 5 5 0 0
BITMAP
0100
1940
AA00
2000
1A00
ENDCHAR
STARTCHAR uni04BE
ENCODING 1214
SWIDTH 765 0
DWIDTH 6 0
BBX 6 8 0 -2
BITMAP
0290
0820
6560
2500
2400
0A80
0200
0100
ENDCHAR
STARTCHAR uni04BF
ENCODING 1215
SWIDTH 592 0
DWIDTH 5 0
BBX 5 7 0 -2
BITMAP
0100
1940
AA00
2000
1A00
0800
0400
ENDCHAR
STARTCHAR uni04C0
ENCODING 1216
SWIDTH 272 0
DWIDTH 2 0
BBX 2 6 0 0
BITMAP
10
20
20
20
50
80
ENDCHAR
STARTCHAR uni04C1
ENCODING 1217
SWIDTH 775 0
DWIDTH 6 0
BBX 7 8 0 0
BITMAP
0010
0280
2104
2620
0A80
1A80
2580
8860
ENDCHAR
STARTCHAR uni04C2
ENCODING 1218
SWIDTH 833 0
DWIDTH 7 0
BBX 7 6 0 0
BITMAP
0690
1104
2664
1A80
1680
A560
ENDCHAR
STARTCHAR uni04C3
ENCODING 1219
SWIDTH 628 0
DWIDTH 5 0
BBX 5 8 0 -2
BITMAP
1080
2200
2800
2A00
5140
8140
0200
2900
ENDCHAR
STARTCHAR uni04C4
ENCODING 1220
SWIDTH 514 0
DWIDTH 4 0
BBX 4 7 0 -2
BITMAP
11
25
68
55
82
05
68
ENDCHAR
STARTCHAR uni04C5
ENCODING 1221
SWIDTH 649 0
DWIDTH 5 0
BBX 5 8 0 -2
BITMAP
0680
0880
1480
1480
2140
9240
0140
0100
ENDCHAR
STARTCHAR uni04C6
ENCODING 1222
SWIDTH 536 0
DWIDTH 4 0
BBX 5 7 -1 -2
BITMAP
0140
0580
0880
1540
6180
0040
0100
ENDCHAR
STARTCHAR uni04C7
ENCODING 1223
SWIDTH 678 0
DWIDTH 5 0
BBX 6 8 0 -2
BITMAP
1050
2050
2580
2580
5080
8140
0200
2900
ENDCHAR
STARTCHAR uni04C8
ENCODING 1224
SWIDTH 599 0
DWIDTH 5 0
BBX 5 7 0 -2
BITMAP
1000
2140
6640
5200
8200
0500
2800
ENDCHAR
STARTCHAR uni04C9
ENCODING 1225
SWIDTH 684 0
DWIDTH 5 0
BBX 6 8 0 -2
BITMAP
1050
2050
2580
2580
5080
8180
0080
0100
ENDCHAR
STARTCHAR uni04CA
ENCODING 1226
SWIDTH 599 0
DWIDTH 5 0
BBX 5 7 0 -2
BITMAP
1000
2140
6640
5200
8200
0200
0100
ENDCHAR
STARTCHAR uni04CB
ENCODING 1227
SWIDTH 639 0
DWIDTH 5 0
BBX 4 8 1 -2
BITMAP
41
82
82
A9
05
08
14
10
ENDCHAR
STARTCHAR uni04CC
ENCODING 1228
SWIDTH 578 0
DWIDTH 5 0
BBX 4 7 1 -2
BITMAP
40
85
9C
58
18
20
10
ENDCHAR
STARTCHAR uni04CD
ENCODING 1229
SWIDTH 841 0
DWIDTH 7 0
BBX 7 8 0 -2
BITMAP
1414
2824
2864
1860
5A20
8530
0020
0010
ENDCHAR
STARTCHAR uni04CE
ENCODING 1230
SWIDTH 688 0
DWIDTH 6 0
BBX 5 6 0 -1
BITMAP
1000
30C0
6180
5580
8880
0080
ENDCHAR
STARTCHAR uni04CF
ENCODING 1231
SWIDTH 272 0
DWIDTH 2 0
BBX 2 6 0 0
BITMAP
10
20
20
20
50
80
ENDCHAR
STARTCHAR uni04D0
ENCODING 1232
SWIDTH 555 0
DWIDTH 4 0
BBX 6 8 -1 0
BITMAP
0110
0290
0140
0240
0980
0980
2580
6080
ENDCHAR
STARTCHAR uni04D1
ENCODING 1233
SWIDTH 564 0
DWIDTH 5 0
BBX 5 6 0 0
BITMAP
1A40
0400
2640
5200
8200
6600
ENDCHAR
STARTCHAR uni04D2
ENCODING 1234
SWIDTH 555 0
DWIDTH 4 0
BBX 5 7 -1 0
BITMAP
0140
0140
0240
0980
0980
2580
6080
ENDCHAR
STARTCHAR uni04D3
ENCODING 1235
SWIDTH 564 0
DWIDTH 5 0
BBX 5 6 0 0
BITMAP
0500
0400
2640
5200
8200
6600
ENDCHAR
STARTCHAR uni04D4
ENCODING 1236
SWIDTH 816 0
DWIDTH 7 0
BBX 8 6 -1 0
BITMAP
00A9
0250
0654
0994
2580
60E4
ENDCHAR
STARTCHAR uni04D5
ENCODING 1237
SWIDTH 814 0
DWIDTH 7 0
BBX 7 5 0 0
BITMAP
0410
2764
5360
8600
6A90
ENDCHAR
STARTCHAR uni04D6
ENCODING 1238
SWIDTH 511 0
DWIDTH 4 0
BBX 5 8 0 0
BITMAP
0040
0A40
1A40
2000
2500
2500
5000
A800
ENDCHAR
STARTCHAR uni04D7
ENCODING 1239
SWIDTH 493 0
DWIDTH 4 0
BBX 4 6 0 0
BITMAP
26
04
26
69
90
68
ENDCHAR
STARTCHAR uni04D8
ENCODING 1240
SWIDTH 661 0
DWIDTH 5 0
BBX 5 6 0 0
BITMAP
1A40
0080
0080
2A80
8140
6A00
ENDCHAR
STARTCHAR uni04D9
ENCODING 1241
SWIDTH 493 0
DWIDTH 4 0
BBX 4 5 0 0
BITMAP
14
15
16
99
A8
ENDCHAR
STARTCHAR uni04DA
ENCODING 1242
SWIDTH 661 0
DWIDTH 5 0
BBX 5 7 0 0
BITMAP
0440
1A40
0080
0080
2A80
8140
6A00
ENDCHAR
STARTCHAR uni04DB
ENCODING 1243
SWIDTH 493 0
DWIDTH 4 0
BBX 4 6 0 0
BITMAP
11
14
15
16
99
A8
ENDCHAR
STARTCHAR uni04DC
ENCODING 1244
SWIDTH 775 0
DWIDTH 6 0
BBX 7 7 0 0
BITMAP
0140
2104
2620
0A80
1A80
2580
8860
ENDCHAR
STARTCHAR uni04DD
ENCODING 1245
SWIDTH 833 0
DWIDTH 7 0
BBX 7 6 0 0
BITMAP
0140
1004
2664
1A80
1680
A560
ENDCHAR
STARTCHAR uni04DE
ENCODING 1246
SWIDTH 532 0
DWIDTH 4 0
BBX 4 7 0 0
BITMAP
05
2A
02
16
15
02
A9
ENDCHAR
STARTCHAR uni04DF
ENCODING 1247
SWIDTH 436 0
DWIDTH 3 0
BBX 4 6 0 0
BITMAP
15
14
19
18
08
A8
ENDCHAR
STARTCHAR uni04E0
ENCODING 1248
SWIDTH 525 0
DWIDTH 4 0
BBX 5 6 0 0
BITMAP
2A40
0500
1800
1900
0200
A900
ENDCHAR
STARTCHAR uni04E1
ENCODING 1249
SWIDTH 456 0
DWIDTH 4 0
BBX 5 7 -1 -2
BITMAP
0500
0640
0500
0900
0200
0200
6800
ENDCHAR
STARTCHAR uni04E2
ENCODING 1250
SWIDTH 696 0
DWIDTH 6 0
BBX 6 7 0 0
BITMAP
0640
1050
2090
2280
1880
6480
9080
ENDCHAR
STARTCHAR uni04E3
ENCODING 1251
SWIDTH 577 0
DWIDTH 5 0
BBX 5 6 0 0
BITMAP
0500
1100
2140
5200
5200
6A00
ENDCHAR
STARTCHAR uni04E4
ENCODING 1252
SWIDTH 696 0
DWIDTH 6 0
BBX 6 7 0 0
BITMAP
0440
1050
2090
2280
1880
6480
9080
ENDCHAR
STARTCHAR uni04E5
ENCODING 1253
SWIDTH 577 0
DWIDTH 5 0
BBX 5 6 0 0
BITMAP
0500
1000
2140
5200
5200
6A00
ENDCHAR
STARTCHAR uni04E6
ENCODING 1254
SWIDTH 720 0
DWIDTH 6 0
BBX 6 7 0 0
BITMAP
0440
0A40
2050
6050
5050
5080
2A40
ENDCHAR
STARTCHAR uni04E7
ENCODING 1255
SWIDTH 561 0
DWIDTH 4 0
BBX 4 6 0 0
BITMAP
05
04
26
52
82
69
ENDCHAR
STARTCHAR uni04E8
ENCODING 1256
SWIDTH 720 0
DWIDTH 6 0
BBX 6 6 0 0
BITMAP
0A40
2050
6550
6590
5080
2A40
ENDCHAR
STARTCHAR uni04E9
ENCODING 1257
SWIDTH 561 0
DWIDTH 4 0
BBX 4 5 0 0
BITMAP
04
26
66
92
69
ENDCHAR
STARTCHAR uni04EA
ENCODING 1258
SWIDTH 720 0
DWIDTH 6 0
BBX 6 7 0 0
BITMAP
0440
0A40
2050
6550
6590
5080
2A40
ENDCHAR
STARTCHAR uni04EB
ENCODING 1259
SWIDTH 561 0
DWIDTH 4 0
BBX 4 6 0 0
BITMAP
05
04
26
66
92
69
ENDCHAR
STARTCHAR uni04EC
ENCODING 1260
SWIDTH 584 0
DWIDTH 5 0
BBX 5 7 0 0
BITMAP
0500
2900
0240
1640
1640
0200
A900
ENDCHAR
STARTCHAR uni04ED
ENCODING 1261
SWIDTH 456 0
DWIDTH 4 0
BBX 4 6 0 0
BITMAP
14
10
18
19
08
A4
ENDCHAR
STARTCHAR uni04EE
ENCODING 1262
SWIDTH 571 0
DWIDTH 5 0
BBX 5 7 0 0
BITMAP
0A00
1040
2180
2200
1900
0800
A000
ENDCHAR
STARTCHAR uni04EF
ENCODING 1263
SWIDTH 461 0
DWIDTH 4 0
BBX 5 8 -1 -2
BITMAP
0500
0040
1080
1600
1A00
0C00
1400
6000
ENDCHAR
STARTCHAR uni04F0
ENCODING 1264
SWIDTH 571 0
DWIDTH 5 0
BBX 5 7 0 0
BITMAP
0500
1040
2180
2200
1900
0800
A000
ENDCHAR
STARTCHAR uni04F1
ENCODING 1265
SWIDTH 461 0
DWIDTH 4 0
BBX 5 8 -1 -2
BITMAP
0440
0040
1080
1600
1A00
0C00
1400
6000
ENDCHAR
STARTCHAR uni04F2
ENCODING 1266
SWIDTH 571 0
DWIDTH 5 0
BBX 5 8 0 0
BITMAP
0140
0540
1040
2180
2200
1900
0800
A000
ENDCHAR
STARTCHAR uni04F3
ENCODING 1267
SWIDTH 461 0
DWIDTH 4 0
BBX 5 8 -1 -2
BITMAP
0580
0040
1080
1600
1A00
0C00
1400
6000
ENDCHAR
STARTCHAR uni04F4
ENCODING 1268
SWIDTH 639 0
DWIDTH 5 0
BBX 4 7 1 0
BITMAP
11
41
82
82
A9
05
08
ENDCHAR
STARTCHAR uni04F5
ENCODING 1269
SWIDTH 555 0
DWIDTH 4 0
BBX 4 6 0 0
BITMAP
15
00
52
56
16
05
ENDCHAR
STARTCHAR uni04F6
ENCODING 1270
SWIDTH 476 0
DWIDTH 4 0
BBX 5 8 0 -2
BITMAP
1A40
2000
2000
2000
5000
9000
2000
1000
ENDCHAR
STARTCHAR uni04F7
ENCODING 1271
SWIDTH 382 0
DWIDTH 3 0
BBX 3 7 0 -2
BITMAP
14
24
50
50
90
50
40
ENDCHAR
STARTCHAR uni04F8
ENCODING 1272
SWIDTH 786 0
DWIDTH 6 0
BBX 7 7 0 0
BITMAP
0140
1014
2020
2420
2620
5250
A950
ENDCHAR
STARTCHAR uni04F9
ENCODING 1273
SWIDTH 721 0
DWIDTH 6 0
BBX 6 6 0 0
BITMAP
0440
1000
2050
6480
5580
6980
ENDCHAR
STARTCHAR uni04FA
ENCODING 1274
SWIDTH 471 0
DWIDTH 4 0
BBX 5 8 0 -2
BITMAP
1A40
2000
2000
6400
5000
9000
5000
4000
ENDCHAR
STARTCHAR uni04FB
ENCODING 1275
SWIDTH 382 0
DWIDTH 3 0
BBX 3 7 0 -2
BITMAP
14
24
60
90
90
50
40
ENDCHAR
STARTCHAR uni04FC
ENCODING 1276
SWIDTH 508 0
DWIDTH 4 0
BBX 5 8 0 -2
BITMAP
1040
2200
1800
1800
5500
8200
0200
0500
ENDCHAR
STARTCHAR uni04FD
ENCODING 1277
SWIDTH 469 0
DWIDTH 4 0
BBX 4 7 0 -2
BITMAP
01
25
28
28
89
05
04
ENDCHAR
STARTCHAR uni04FE
ENCODING 1278
SWIDTH 519 0
DWIDTH 4 0
BBX 5 6 0 0
BITMAP
1040
2200
2D00
2900
5500
8200
ENDCHAR
STARTCHAR uni04FF
ENCODING 1279
SWIDTH 478 0
DWIDTH 4 0
BBX 4 5 0 0
BITMAP
01
25
69
28
88
ENDCHAR
STARTCHAR uni0500
ENCODING 1280
SWIDTH 565 0
DWIDTH 5 0
BBX 5 6 0 0
BITMAP
0040
0140
0600
6600
8200
6900
ENDCHAR
STARTCHAR uni0501
ENCODING 1281
SWIDTH 577 0
DWIDTH 5 0
BBX 5 6 0 0
BITMAP
0080
0540
2640
5200
8200
6600
ENDCHAR
STARTCHAR uni0502
ENCODING 1282
SWIDTH 831 0
DWIDTH 7 0
BBX 6 6 0 0
BITMAP
0040
0140
0600
6620
9220
6A90
ENDCHAR
STARTCHAR uni0503
ENCODING 1283
SWIDTH 850 0
DWIDTH 7 0
BBX 6 6 0 0
BITMAP
0080
0540
2640
5210
8220
6AA0
ENDCHAR
STARTCHAR uni0504
ENCODING 1284
SWIDTH 837 0
DWIDTH 7 0
BBX 5 6 1 0
BITMAP
6800
0800
5800
5480
0880
0A40
ENDCHAR
STARTCHAR uni0505
ENCODING 1285
SWIDTH 743 0
DWIDTH 6 0
BBX 5 5 1 0
BITMAP
5000
6000
A140
2100
2A00
ENDCHAR
STARTCHAR uni0506
ENCODING 1286
SWIDTH 569 0
DWIDTH 5 0
BBX 3 8 1 -2
BITMAP
68
08
58
54
08
18
08
04
ENDCHAR
STARTCHAR uni0507
ENCODING 1287
SWIDTH 470 0
DWIDTH 4 0
BBX 2 7 1 -2
BITMAP
50
60
A0
20
20
20
10
ENDCHAR
STARTCHAR uni0508
ENCODING 1288
SWIDTH 895 0
DWIDTH 7 0
BBX 7 6 0 0
BITMAP
0680
0880
1484
1548
2214
91A0
ENDCHAR
STARTCHAR uni0509
ENCODING 1289
SWIDTH 806 0
DWIDTH 6 0
BBX 7 5 -1 0
BITMAP
0140
0580
0884
1548
60A4
ENDCHAR
STARTCHAR uni050A
ENCODING 1290
SWIDTH 953 0
DWIDTH 8 0
BBX 7 6 0 0
BITMAP
1050
2050
2580
2588
5088
80A4
ENDCHAR
STARTCHAR uni050B
ENCODING 1291
SWIDTH 867 0
DWIDTH 7 0
BBX 7 5 0 0
BITMAP
1000
2140
6654
5220
82A0
ENDCHAR
STARTCHAR uni050C
ENCODING 1292
SWIDTH 695 0
DWIDTH 6 0
BBX 6 6 0 0
BITMAP
0A80
2400
6000
5290
5080
2A40
ENDCHAR
STARTCHAR uni050D
ENCODING 1293
SWIDTH 588 0
DWIDTH 5 0
BBX 4 5 0 0
BITMAP
05
25
51
86
69
ENDCHAR
STARTCHAR uni050E
ENCODING 1294
SWIDTH 658 0
DWIDTH 5 0
BBX 4 6 1 0
BITMAP
A9
20
21
52
55
68
ENDCHAR
STARTCHAR uni050F
ENCODING 1295
SWIDTH 586 0
DWIDTH 5 0
BBX 4 5 0 0
BITMAP
14
64
21
22
29
ENDCHAR
STARTCHAR uni0510
ENCODING 1296
SWIDTH 539 0
DWIDTH 4 0
BBX 5 6 0 0
BITMAP
0A40
2000
1400
2500
5000
6900
ENDCHAR
STARTCHAR uni0511
ENCODING 1297
SWIDTH 444 0
DWIDTH 4 0
BBX 4 5 0 0
BITMAP
04
25
24
90
A8
ENDCHAR
STARTCHAR uni0512
ENCODING 1298
SWIDTH 633 0
DWIDTH 5 0
BBX 5 8 0 -2
BITMAP
0680
0880
1480
1480
2140
9240
0140
0100
ENDCHAR
STARTCHAR uni0513
ENCODING 1299
SWIDTH 526 0
DWIDTH 4 0
BBX 5 7 -1 -2
BITMAP
0140
0580
0880
1540
6180
0080
0100
ENDCHAR
STARTCHAR uni1E00
ENCODING 7680
SWIDTH 555 0
DWIDTH 4 0
BBX 5 8 -1 -2
BITMAP
0140
0240
0980
0980
2580
6080
0400
0500
ENDCHAR
STARTCHAR uni1E01
ENCODING 7681
SWIDTH 564 0
DWIDTH 5 0
BBX 5 7 0 -2
BITMAP
0400
2640
5200
8200
6600
1000
2400
ENDCHAR
STARTCHAR uni1E3E
ENCODING 7742
SWIDTH 836 0
DWIDTH 7 0
BBX 7 8 0 0
BITMAP
0040
0040
1414
2824
2864
1860
5A20
8520
ENDCHAR
STARTCHAR uni1E3F
ENCODING 7743
SWIDTH 872 0
DWIDTH 7 0
BBX 7 6 0 0
BITMAP
0080
0510
2654
6214
5214
8520
ENDCHAR
STARTCHAR Wgrave
ENCODING 7808
SWIDTH 852 0
DWIDTH 7 0
BBX 7 8 1 0
BITMAP
0400
0500
4514
8A20
9650
A280
9280
C200
ENDCHAR
STARTCHAR wgrave
ENCODING 7809
SWIDTH 716 0
DWIDTH 6 0
BBX 6 6 0 0
BITMAP
0500
0110
8620
5A50
6280
6240
ENDCHAR
STARTCHAR Wacute
ENCODING 7810
SWIDTH 852 0
DWIDTH 7 0
BBX 7 8 1 0
BITMAP
0040
0100
4514
8A20
9650
A280
9280
C200
ENDCHAR
STARTCHAR wacute
ENCODING 7811
SWIDTH 716 0
DWIDTH 6 0
BBX 6 6 0 0
BITMAP
0140
0110
8620
5A50
6280
6240
ENDCHAR
STARTCHAR Wdieresis
ENCODING 7812
SWIDTH 852 0
DWIDTH 7 0
BBX 7 7 1 0
BITMAP
0500
4514
8A20
9650
A280
9280
C200
ENDCHAR
STARTCHAR wdieresis
ENCODING 7813
SWIDTH 716 0
DWIDTH 6 0
BBX 6 6 0 0
BITMAP
0440
0010
8620
5A50
6280
6240
ENDCHAR
STARTCHAR uni1EA0
ENCODING 7840
SWIDTH 555 0
DWIDTH 4 0
BBX 5 8 -1 -2
BITMAP
0140
0240
0980
0980
2580
6080
0400
0400
ENDCHAR
STARTCHAR uni1EA1
ENCODING 7841
SWIDTH 564 0
DWIDTH 5 0
BBX 5 7 0 -2
BITMAP
0400
2640
5200
8200
6600
1000
1000
ENDCHAR
STARTCHAR uni1EA2
ENCODING 7842
SWIDTH 555 0
DWIDTH 4 0
BBX 5 8 -1 0
BITMAP
0080
0040
0140
0240
0980
0980
2580
6080
ENDCHAR
STARTCHAR uni1EA3
ENCODING 7843
SWIDTH 564 0
DWIDTH 5 0
BBX 5 7 0 0
BITMAP
0500
0500
0400
2640
5200
8200
6600
ENDCHAR
STARTCHAR uni1EA4
ENCODING 7844
SWIDTH 555 0
DWIDTH 4 0
BBX 6 8 -1 0
BITMAP
0050
0140
0140
0240
0980
0980
2580
6080
ENDCHAR
STARTCHAR uni1EA5
ENCODING 7845
SWIDTH 564 0
DWIDTH 5 0
BBX 5 7 0 0
BITMAP
0040
0A00
0400
2640
5200
8200
6600
ENDCHAR
STARTCHAR uni1EA6
ENCODING 7846
SWIDTH 555 0
DWIDTH 4 0
BBX 5 8 -1 0
BITMAP
0440
0140
0140
0240
0980
0980
2580
6080
ENDCHAR
STARTCHAR uni1EA7
ENCODING 7847
SWIDTH 564 0
DWIDTH 5 0
BBX 5 7 0 0
BITMAP
1000
1900
0400
2640
5200
8200
6600
ENDCHAR
STARTCHAR uni1EA8
ENCODING 7848
SWIDTH 555 0
DWIDTH 4 0
BBX 6 8 -1 0
BITMAP
0060
0140
0140
0240
0980
0980
2580
6080
ENDCHAR
STARTCHAR uni1EA9
ENCODING 7849
SWIDTH 564 0
DWIDTH 5 0
BBX 5 7 0 0
BITMAP
0040
0900
0400
2640
5200
8200
6600
ENDCHAR
STARTCHAR uni1EAA
ENCODING 7850
SWIDTH 555 0
DWIDTH 4 0
BBX 6 9 -1 0
BITMAP
0150
0190
0140
0140
0240
0980
0980
2580
6080
ENDCHAR
STARTCHAR uni1EAB
ENCODING 7851
SWIDTH 564 0
DWIDTH 5 0
BBX 5 7 0 0
BITMAP
0540
0900
0400
2640
5200
8200
6600
ENDCHAR
STARTCHAR uni1EAC
ENCODING 7852
SWIDTH 555 0
DWIDTH 4 0
BBX 5 10 -1 -2
BITMAP
0040
0140
0140
0240
0980
0980
2580
6080
0400
0400
ENDCHAR
STARTCHAR uni1EAD
ENCODING 7853
SWIDTH 564 0
DWIDTH 5 0
BBX 5 8 0 -2
BITMAP
0A00
0400
2640
5200
8200
6600
1000
1000
ENDCHAR
STARTCHAR uni1EAE
ENCODING 7854
SWIDTH 555 0
DWIDTH 4 0
BBX 5 8 -1 0
BITMAP
0040
0280
0140
0240
0980
0980
2580
6080
ENDCHAR
STARTCHAR uni1EAF
ENCODING 7855
SWIDTH 564 0
DWIDTH 5 0
BBX 5 7 0 0
BITMAP
0100
0A00
0400
2640
5200
8200
6600
ENDCHAR
STARTCHAR uni1EB0
ENCODING 7856
SWIDTH 555 0
DWIDTH 4 0
BBX 5 8 -1 0
BITMAP
0140
0280
0140
0240
0980
0980
2580
6080
ENDCHAR
STARTCHAR uni1EB1
ENCODING 7857
SWIDTH 564 0
DWIDTH 5 0
BBX 5 7 0 0
BITMAP
0400
0A00
0400
2640
5200
8200
6600
ENDCHAR
STARTCHAR uni1EB2
ENCODING 7858
SWIDTH 555 0
DWIDTH 4 0
BBX 5 9 -1 0
BITMAP
0040
0040
0280
0140
0240
0980
0980
2580
6080
ENDCHAR
STARTCHAR uni1EB3
ENCODING 7859
SWIDTH 564 0
DWIDTH 5 0
BBX 5 7 0 0
BITMAP
0500
0A00
0400
2640
5200
8200
6600
ENDCHAR
STARTCHAR uni1EB4
ENCODING 7860
SWIDTH 555 0
DWIDTH 4 0
BBX 6 9 -1 0
BITMAP
0110
0150
0280
0140
0240
0980
0980
2580
6080
ENDCHAR
STARTCHAR uni1EB5
ENCODING 7861
SWIDTH 564 0
DWIDTH 5 0
BBX 5 7 0 0
BITMAP
0A40
0900
0400
2640
5200
8200
6600
ENDCHAR
STARTCHAR uni1EB6
ENCODING 7862
SWIDTH 555 0
DWIDTH 4 0
BBX 5 9 -1 -2
BITMAP
0180
0140
0240
0980
0980
2580
6080
0400
0400
ENDCHAR
STARTCHAR uni1EB7
ENCODING 7863
SWIDTH 564 0
DWIDTH 5 0
BBX 5 8 0 -2
BITMAP
0A00
0400
2640
5200
8200
6600
1000
1000
ENDCHAR
STARTCHAR uni1EB8
ENCODING 7864
SWIDTH 511 0
DWIDTH 4 0
BBX 5 8 0 -2
BITMAP
1A40
2000
2500
2500
5000
A800
1000
1000
ENDCHAR
STARTCHAR uni1EB9
ENCODING 7865
SWIDTH 493 0
DWIDTH 4 0
BBX 4 7 0 -2
BITMAP
04
26
69
90
68
10
10
ENDCHAR
STARTCHAR uni1EBA
ENCODING 7866
SWIDTH 511 0
DWIDTH 4 0
BBX 5 8 0 0
BITMAP
0200
0500
1A40
2000
2500
2500
5000
A800
ENDCHAR
STARTCHAR uni1EBB
ENCODING 7867
SWIDTH 493 0
DWIDTH 4 0
BBX 4 7 0 0
BITMAP
05
05
04
26
69
90
68
ENDCHAR
STARTCHAR uni1EBC
ENCODING 7868
SWIDTH 511 0
DWIDTH 4 0
BBX 5 7 0 0
BITMAP
0A40
1A40
2000
2500
2500
5000
A800
ENDCHAR
STARTCHAR uni1EBD
ENCODING 7869
SWIDTH 493 0
DWIDTH 4 0
BBX 4 6 0 0
BITMAP
19
04
26
69
90
68
ENDCHAR
STARTCHAR uni1EBE
ENCODING 7870
SWIDTH 511 0
DWIDTH 4 0
BBX 5 8 0 0
BITMAP
0140
0500
1A40
2000
2500
2500
5000
A800
ENDCHAR
STARTCHAR uni1EBF
ENCODING 7871
SWIDTH 493 0
DWIDTH 4 0
BBX 5 7 0 0
BITMAP
0040
0900
0400
2600
6900
9000
6800
ENDCHAR
STARTCHAR uni1EC0
ENCODING 7872
SWIDTH 511 0
DWIDTH 4 0
BBX 5 8 0 0
BITMAP
1100
0500
1A40
2000
2500
2500
5000
A800
ENDCHAR
STARTCHAR uni1EC1
ENCODING 7873
SWIDTH 493 0
DWIDTH 4 0
BBX 4 7 0 0
BITMAP
10
19
04
26
69
90
68
ENDCHAR
STARTCHAR uni1EC2
ENCODING 7874
SWIDTH 511 0
DWIDTH 4 0
BBX 5 8 0 0
BITMAP
0180
0500
1A40
2000
2500
2500
5000
A800
ENDCHAR
STARTCHAR uni1EC3
ENCODING 7875
SWIDTH 493 0
DWIDTH 4 0
BBX 5 7 0 0
BITMAP
0040
0900
0400
2600
6900
9000
6800
ENDCHAR
STARTCHAR uni1EC4
ENCODING 7876
SWIDTH 511 0
DWIDTH 4 0
BBX 5 9 0 0
BITMAP
0540
0640
0500
1A40
2000
2500
2500
5000
A800
ENDCHAR
STARTCHAR uni1EC5
ENCODING 7877
SWIDTH 493 0
DWIDTH 4 0
BBX 4 7 0 0
BITMAP
16
09
04
26
69
90
68
ENDCHAR
STARTCHAR uni1EC6
ENCODING 7878
SWIDTH 511 0
DWIDTH 4 0
BBX 5 10 0 -2
BITMAP
0100
0500
1A40
2000
2500
2500
5000
A800
1000
1000
ENDCHAR
STARTCHAR uni1EC7
ENCODING 7879
SWIDTH 493 0
DWIDTH 4 0
BBX 4 8 0 -2
BITMAP
09
04
26
69
90
68
10
10
ENDCHAR
STARTCHAR uni1EC8
ENCODING 7880
SWIDTH 272 0
DWIDTH 2 0
BBX 3 8 0 0
BITMAP
08
14
10
20
20
20
50
80
ENDCHAR
STARTCHAR uni1EC9
ENCODING 7881
SWIDTH 253 0
DWIDTH 2 0
BBX 3 7 0 0
BITMAP
14
14
10
20
50
50
80
ENDCHAR
STARTCHAR uni1ECA
ENCODING 7882
SWIDTH 272 0
DWIDTH 2 0
BBX 2 8 0 -2
BITMAP
10
20
20
20
50
80
40
40
ENDCHAR
STARTCHAR uni1ECB
ENCODING 7883
SWIDTH 253 0
DWIDTH 2 0
BBX 2 8 0 -2
BITMAP
10
10
20
50
50
80
40
40
ENDCHAR
STARTCHAR uni1ECC
ENCODING 7884
SWIDTH 720 0
DWIDTH 6 0
BBX 6 8 0 -2
BITMAP
0A40
2050
6050
5050
5080
2A40
0400
0400
ENDCHAR
STARTCHAR uni1ECD
ENCODING 7885
SWIDTH 561 0
DWIDTH 4 0
BBX 4 7 0 -2
BITMAP
04
26
52
82
69
10
10
ENDCHAR
STARTCHAR uni1ECE
ENCODING 7886
SWIDTH 720 0
DWIDTH 6 0
BBX 6 8 0 0
BITMAP
0140
0140
0A40
2050
6050
5050
5080
2A40
ENDCHAR
STARTCHAR uni1ECF
ENCODING 7887
SWIDTH 561 0
DWIDTH 4 0
BBX 4 7 0 0
BITMAP
05
05
04
26
52
82
69
ENDCHAR
STARTCHAR uni1ED0
ENCODING 7888
SWIDTH 720 0
DWIDTH 6 0
BBX 6 8 0 0
BITMAP
0150
0540
0A40
2050
6050
5050
5080
2A40
ENDCHAR
STARTCHAR uni1ED1
ENCODING 7889
SWIDTH 561 0
DWIDTH 4 0
BBX 5 7 0 0
BITMAP
0040
0900
0400
2600
5200
8200
6900
ENDCHAR
STARTCHAR uni1ED2
ENCODING 7890
SWIDTH 720 0
DWIDTH 6 0
BBX 6 8 0 0
BITMAP
0500
0540
0A40
2050
6050
5050
5080
2A40
ENDCHAR
STARTCHAR uni1ED3
ENCODING 7891
SWIDTH 561 0
DWIDTH 4 0
BBX 4 7 0 0
BITMAP
10
19
04
26
52
82
69
ENDCHAR
STARTCHAR uni1ED4
ENCODING 7892
SWIDTH 720 0
DWIDTH 6 0
BBX 6 8 0 0
BITMAP
0150
0540
0A40
2050
6050
5050
5080
2A40
ENDCHAR
STARTCHAR uni1ED5
ENCODING 7893
SWIDTH 561 0
DWIDTH 4 0
BBX 5 7 0 0
BITMAP
0040
0900
0400
2600
5200
8200
6900
ENDCHAR
STARTCHAR uni1ED6
ENCODING 7894
SWIDTH 720 0
DWIDTH 6 0
BBX 6 9 0 0
BITMAP
0100
0540
0540
0A40
2050
6050
5050
5080
2A40
ENDCHAR
STARTCHAR uni1ED7
ENCODING 7895
SWIDTH 561 0
DWIDTH 4 0
BBX 4 7 0 0
BITMAP
05
09
04
26
52
82
69
ENDCHAR
STARTCHAR uni1ED8
ENCODING 7896
SWIDTH 720 0
DWIDTH 6 0
BBX 6 10 0 -2
BITMAP
0100
0540
0A40
2050
6050
5050
5080
2A40
0400
0400
ENDCHAR
STARTCHAR uni1ED9
ENCODING 7897
SWIDTH 561 0
DWIDTH 4 0
BBX 4 8 0 -2
BITMAP
0A
04
26
52
82
69
10
10
ENDCHAR
STARTCHAR uni1EDA
ENCODING 7898
SWIDTH 713 0
DWIDTH 6 0
BBX 7 8 0 0
BITMAP
0040
0100
0A54
2060
6050
5050
5080
2A40
ENDCHAR
STARTCHAR uni1EDB
ENCODING 7899
SWIDTH 561 0
DWIDTH 4 0
BBX 5 6 0 0
BITMAP
0500
0480
2640
5200
8200
6900
ENDCHAR
STARTCHAR uni1EDC
ENCODING 7900
SWIDTH 713 0
DWIDTH 6 0
BBX 7 8 0 0
BITMAP
0100
0100
0A54
2060
6050
5050
5080
2A40
ENDCHAR
STARTCHAR uni1EDD
ENCODING 7901
SWIDTH 561 0
DWIDTH 4 0
BBX 5 6 0 0
BITMAP
0800
0480
2640
5200
8200
6900
ENDCHAR
STARTCHAR uni1EDE
ENCODING 7902
SWIDTH 713 0
DWIDTH 6 0
BBX 7 8 0 0
BITMAP
0140
0140
0A54
2060
6050
5050
5080
2A40
ENDCHAR
STARTCHAR uni1EDF
ENCODING 7903
SWIDTH 561 0
DWIDTH 4 0
BBX 5 7 0 0
BITMAP
0500
0500
0480
2640
5200
8200
6900
ENDCHAR
STARTCHAR uni1EE0
ENCODING 7904
SWIDTH 713 0
DWIDTH 6 0
BBX 7 7 0 0
BITMAP
0640
0A54
2060
6050
5050
5080
2A40
ENDCHAR
STARTCHAR uni1EE1
ENCODING 7905
SWIDTH 561 0
DWIDTH 4 0
BBX 5 6 0 0
BITMAP
1A00
0480
2640
5200
8200
6900
ENDCHAR
STARTCHAR uni1EE2
ENCODING 7906
SWIDTH 713 0
DWIDTH 6 0
BBX 7 8 0 -2
BITMAP
0A54
2060
6050
5050
5080
2A40
0400
0400
ENDCHAR
STARTCHAR uni1EE3
ENCODING 7907
SWIDTH 561 0
DWIDTH 4 0
BBX 5 7 0 -2
BITMAP
0480
2640
5200
8200
6900
1000
1000
ENDCHAR
STARTCHAR uni1EE4
ENCODING 7908
SWIDTH 675 0
DWIDTH 5 0
BBX 6 7 0 -1
BITMAP
1050
2050
2080
5080
5080
2A00
0400
ENDCHAR
STARTCHAR uni1EE5
ENCODING 7909
SWIDTH 577 0
DWIDTH 5 0
BBX 5 6 0 -1
BITMAP
1000
2140
5200
5200
6A00
1000
ENDCHAR
STARTCHAR uni1EE6
ENCODING 7910
SWIDTH 675 0
DWIDTH 5 0
BBX 6 8 0 0
BITMAP
0140
0100
1050
2050
2080
5080
5080
2A00
ENDCHAR
STARTCHAR uni1EE7
ENCODING 7911
SWIDTH 577 0
DWIDTH 5 0
BBX 5 7 0 0
BITMAP
0500
0500
1000
2140
5200
5200
6A00
ENDCHAR
STARTCHAR uni1EE8
ENCODING 7912
SWIDTH 722 0
DWIDTH 6 0
BBX 7 8 0 0
BITMAP
0040
0100
1058
2050
2080
5080
5080
2A00
ENDCHAR
STARTCHAR uni1EE9
ENCODING 7913
SWIDTH 617 0
DWIDTH 5 0
BBX 6 6 0 0
BITMAP
0500
1060
2180
5200
5200
6A00
ENDCHAR
STARTCHAR uni1EEA
ENCODING 7914
SWIDTH 722 0
DWIDTH 6 0
BBX 7 8 0 0
BITMAP
0400
0100
1058
2050
2080
5080
5080
2A00
ENDCHAR
STARTCHAR uni1EEB
ENCODING 7915
SWIDTH 617 0
DWIDTH 5 0
BBX 6 6 0 0
BITMAP
0800
1060
2180
5200
5200
6A00
ENDCHAR
STARTCHAR uni1EEC
ENCODING 7916
SWIDTH 722 0
DWIDTH 6 0
BBX 7 8 0 0
BITMAP
0140
0100
1058
2050
2080
5080
5080
2A00
ENDCHAR
STARTCHAR uni1EED
ENCODING 7917
SWIDTH 617 0
DWIDTH 5 0
BBX 6 7 0 0
BITMAP
0500
0500
1060
2180
5200
5200
6A00
ENDCHAR
STARTCHAR uni1EEE
ENCODING 7918
SWIDTH 722 0
DWIDTH 6 0
BBX 7 7 0 0
BITMAP
0640
1058
2050
2080
5080
5080
2A00
ENDCHAR
STARTCHAR uni1EEF
ENCODING 7919
SWIDTH 617 0
DWIDTH 5 0
BBX 6 6 0 0
BITMAP
1A00
1060
2180
5200
5200
6A00
ENDCHAR
STARTCHAR uni1EF0
ENCODING 7920
SWIDTH 722 0
DWIDTH 6 0
BBX 7 7 0 -1
BITMAP
1058
2050
2080
5080
5080
2A00
0400
ENDCHAR
STARTCHAR uni1EF1
ENCODING 7921
SWIDTH 617 0
DWIDTH 5 0
BBX 6 6 0 -1
BITMAP
1060
2180
5200
5200
6A00
1000
ENDCHAR
STARTCHAR Ygrave
ENCODING 7922
SWIDTH 502 0
DWIDTH 4 0
BBX 4 8 1 0
BITMAP
10
10
41
88
94
60
50
80
ENDCHAR
STARTCHAR ygrave
ENCODING 7923
SWIDTH 461 0
DWIDTH 4 0
BBX 5 8 -1 -2
BITMAP
0500
0040
1080
1600
1A00
0C00
1400
6000
ENDCHAR
STARTCHAR uni1EF4
ENCODING 7924
SWIDTH 502 0
DWIDTH 4 0
BBX 4 8 1 -2
BITMAP
41
88
94
60
50
80
40
40
ENDCHAR
STARTCHAR uni1EF5
ENCODING 7925
SWIDTH 461 0
DWIDTH 4 0
BBX 5 7 -1 -2
BITMAP
0040
1080
1600
1A00
0C00
1500
6100
ENDCHAR
STARTCHAR uni1EF6
ENCODING 7926
SWIDTH 502 0
DWIDTH 4 0
BBX 4 8 1 0
BITMAP
14
14
41
88
94
60
50
80
ENDCHAR
STARTCHAR uni1EF7
ENCODING 7927
SWIDTH 461 0
DWIDTH 4 0
BBX 5 9 -1 -2
BITMAP
0100
0200
0040
1080
1600
1A00
0C00
1400
6000
ENDCHAR
STARTCHAR uni1EF8
ENCODING 7928
SWIDTH 502 0
DWIDTH 4 0
BBX 4 7 1 0
BITMAP
58
41
88
94
60
50
80
ENDCHAR
STARTCHAR uni1EF9
ENCODING 7929
SWIDTH 461 0
DWIDTH 4 0
BBX 5 8 -1 -2
BITMAP
0A40
1040
1080
1600
1A00
0C00
1400
6000
ENDCHAR
STARTCHAR uni1F4D
ENCODING 8013
SWIDTH 778 0
DWIDTH 6 0
BBX 7 6 -1 0
BITMAP
55A0
5608
0808
0808
0818
06A0
ENDCHAR
STARTCHAR uni2000
ENCODING 8192
SWIDTH 500 0
DWIDTH 4 0
BBX 1 1 0 0
BITMAP
00
ENDCHAR
STARTCHAR uni2001
ENCODING 8193
SWIDTH 1000 0
DWIDTH 8 0
BBX 1 1 0 0
BITMAP
00
ENDCHAR
STARTCHAR uni2002
ENCODING 8194
SWIDTH 500 0
DWIDTH 4 0
BBX 1 1 0 0
BITMAP
00
ENDCHAR
STARTCHAR uni2003
ENCODING 8195
SWIDTH 1000 0
DWIDTH 8 0
BBX 1 1 0 0
BITMAP
00
ENDCHAR
STARTCHAR uni2004
ENCODING 8196
SWIDTH 333 0
DWIDTH 3 0
BBX 1 1 0 0
BITMAP
00
ENDCHAR
STARTCHAR uni2005
ENCODING 8197
SWIDTH 250 0
DWIDTH 2 0
BBX 1 1 0 0
BITMAP
00
ENDCHAR
STARTCHAR uni2006
ENCODING 8198
SWIDTH 166 0
DWIDTH 1 0
BBX 1 1 0 0
BITMAP
00
ENDCHAR
STARTCHAR uni2007
ENCODING 8199
SWIDTH 559 0
DWIDTH 4 0
BBX 1 1 0 0
BITMAP
00
ENDCHAR
STARTCHAR uni2008
ENCODING 8200
SWIDTH 266 0
DWIDTH 2 0
BBX 1 1 0 0
BITMAP
00
ENDCHAR
STARTCHAR uni2009
ENCODING 8201
SWIDTH 200 0
DWIDTH 2 0
BBX 1 1 0 0
BITMAP
00
ENDCHAR
STARTCHAR uni200A
ENCODING 8202
SWIDTH 100 0
DWIDTH 1 0
BBX 1 1 0 0
BITMAP
00
ENDCHAR
STARTCHAR uni200B
ENCODING 8203
SWIDTH 0 0
DWIDTH 0 0
BBX 1 1 0 0
BITMAP
00
ENDCHAR
STARTCHAR endash
ENCODING 8211
SWIDTH 479 0
DWIDTH 4 0
BBX 4 2 0 1
BITMAP
55
14
ENDCHAR
STARTCHAR emdash
ENCODING 8212
SWIDTH 959 0
DWIDTH 8 0
BBX 7 2 0 1
BITMAP
5554
1554
ENDCHAR
STARTCHAR afii00208
ENCODING 8213
SWIDTH 959 0
DWIDTH 8 0
BBX 7 2 0 1
BITMAP
5554
1554
ENDCHAR
STARTCHAR underscoredbl
ENCODING 8215
SWIDTH 394 0
DWIDTH 3 0
BBX 4 2 -1 -2
BITMAP
69
69
ENDCHAR
STARTCHAR quoteleft
ENCODING 8216
SWIDTH 169 0
DWIDTH 1 0
BBX 2 2 0 4
BITMAP
10
60
ENDCHAR
STARTCHAR quoteright
ENCODING 8217
SWIDTH 169 0
DWIDTH 1 0
BBX 2 2 0 4
BITMAP
20
50
ENDCHAR
STARTCHAR quotesinglbase
ENCODING 8218
SWIDTH 240 0
DWIDTH 2 0
BBX 2 2 -1 -1
BITMAP
20
50
ENDCHAR
STARTCHAR quotereversed
ENCODING 8219
SWIDTH 169 0
DWIDTH 1 0
BBX 1 2 1 4
BITMAP
40
80
ENDCHAR
STARTCHAR quotedblleft
ENCODING 8220
SWIDTH 351 0
DWIDTH 3 0
BBX 4 3 0 3
BITMAP
15
68
04
ENDCHAR
STARTCHAR quotedblright
ENCODING 8221
SWIDTH 351 0
DWIDTH 3 0
BBX 4 2 0 4
BITMAP
25
58
ENDCHAR
STARTCHAR quotedblbase
ENCODING 8222
SWIDTH 418 0
DWIDTH 3 0
BBX 4 2 -1 -1
BITMAP
25
58
ENDCHAR
STARTCHAR dagger
ENCODING 8224
SWIDTH 465 0
DWIDTH 4 0
BBX 3 6 1 0
BITMAP
20
A4
10
50
80
80
ENDCHAR
STARTCHAR daggerdbl
ENCODING 8225
SWIDTH 476 0
DWIDTH 4 0
BBX 4 6 0 0
BITMAP
08
2A
04
14
68
20
ENDCHAR
STARTCHAR bullet
ENCODING 8226
SWIDTH 377 0
DWIDTH 3 0
BBX 2 2 1 2
BITMAP
90
D0
ENDCHAR
STARTCHAR ellipsis
ENCODING 8230
SWIDTH 763 0
DWIDTH 6 0
BBX 5 1 0 0
BITMAP
8880
ENDCHAR
STARTCHAR perthousand
ENCODING 8240
SWIDTH 1117 0
DWIDTH 9 0
BBX 9 6 0 0
BITMAP
181000
148000
595100
296880
092840
219A00
ENDCHAR
STARTCHAR minute
ENCODING 8242
SWIDTH 216 0
DWIDTH 2 0
BBX 1 2 1 4
BITMAP
40
80
ENDCHAR
STARTCHAR second
ENCODING 8243
SWIDTH 386 0
DWIDTH 3 0
BBX 2 2 1 4
BITMAP
50
A0
ENDCHAR
STARTCHAR guilsinglleft
ENCODING 8249
SWIDTH 283 0
DWIDTH 2 0
BBX 2 4 0 0
BITMAP
10
50
50
10
ENDCHAR
STARTCHAR guilsinglright
ENCODING 8250
SWIDTH 283 0
DWIDTH 2 0
BBX 2 4 0 0
BITMAP
40
20
50
40
ENDCHAR
STARTCHAR exclamdbl
ENCODING 8252
SWIDTH 479 0
DWIDTH 4 0
BBX 4 6 0 0
BITMAP
21
22
52
41
40
88
ENDCHAR
STARTCHAR fraction
ENCODING 8260
SWIDTH 130 0
DWIDTH 1 0
BBX 5 6 -2 0
BITMAP
0040
0100
0500
0400
2000
4000
ENDCHAR
STARTCHAR zerosuperior
ENCODING 8304
SWIDTH 350 0
DWIDTH 3 0
BBX 3 4 0 2
BITMAP
14
58
48
24
ENDCHAR
STARTCHAR foursuperior
ENCODING 8308
SWIDTH 350 0
DWIDTH 3 0
BBX 3 4 0 2
BITMAP
04
18
68
10
ENDCHAR
STARTCHAR fivesuperior
ENCODING 8309
SWIDTH 350 0
DWIDTH 3 0
BBX 3 4 0 2
BITMAP
14
20
08
54
ENDCHAR
STARTCHAR sixsuperior
ENCODING 8310
SWIDTH 350 0
DWIDTH 3 0
BBX 3 4 0 2
BITMAP
14
24
58
24
ENDCHAR
STARTCHAR sevensuperior
ENCODING 8311
SWIDTH 350 0
DWIDTH 3 0
BBX 2 4 1 2
BITMAP
60
20
80
40
ENDCHAR
STARTCHAR eightsuperior
ENCODING 8312
SWIDTH 350 0
DWIDTH 3 0
BBX 3 4 0 2
BITMAP
14
24
58
54
ENDCHAR
STARTCHAR ninesuperior
ENCODING 8313
SWIDTH 350 0
DWIDTH 3 0
BBX 3 4 0 2
BITMAP
14
18
18
50
ENDCHAR
STARTCHAR nsuperior
ENCODING 8319
SWIDTH 368 0
DWIDTH 3 0
BBX 3 3 0 3
BITMAP
14
14
54
ENDCHAR
STARTCHAR franc
ENCODING 8355
SWIDTH 550 0
DWIDTH 4 0
BBX 5 6 0 0
BITMAP
0A40
1400
2000
2A00
6400
5000
ENDCHAR
STARTCHAR afii08941
ENCODING 8356
SWIDTH 550 0
DWIDTH 4 0
BBX 5 6 0 0
BITMAP
0A40
1400
6900
6400
6400
A900
ENDCHAR
STARTCHAR peseta
ENCODING 8359
SWIDTH 725 0
DWIDTH 6 0
BBX 6 6 0 0
BITMAP
1900
2200
2290
6980
5080
8180
ENDCHAR
STARTCHAR uni20AB
ENCODING 8363
SWIDTH 577 0
DWIDTH 5 0
BBX 5 8 0 -2
BITMAP
0580
0580
2640
5200
8200
6600
5400
5400
ENDCHAR
STARTCHAR Euro
ENCODING 8364
SWIDTH 550 0
DWIDTH 4 0
BBX 5 6 0 0
BITMAP
0640
1400
7900
6400
2000
2900
ENDCHAR
STARTCHAR afii61248
ENCODING 8453
SWIDTH 777 0
DWIDTH 6 0
BBX 5 6 1 0
BITMAP
5040
8200
9400
1540
1880
8640
ENDCHAR
STARTCHAR afii61289
ENCODING 8467
SWIDTH 500 0
DWIDTH 4 0
BBX 3 6 1 0
BITMAP
60
94
90
80
80
64
ENDCHAR
STARTCHAR afii61352
ENCODING 8470
SWIDTH 950 0
DWIDTH 8 0
BBX 8 6 0 0
BITMAP
1440
2880
2898
5965
4668
8324
ENDCHAR
STARTCHAR uni2120
ENCODING 8480
SWIDTH 762 0
DWIDTH 6 0
BBX 6 3 0 3
BITMAP
5550
5590
6950
ENDCHAR
STARTCHAR trademark
ENCODING 8482
SWIDTH 749 0
DWIDTH 6 0
BBX 6 3 0 3
BITMAP
6510
1650
1550
ENDCHAR
STARTCHAR Omega
ENCODING 8486
SWIDTH 732 0
DWIDTH 6 0
BBX 6 6 0 0
BITMAP
0A40
2050
6060
5050
2080
B780
ENDCHAR
STARTCHAR estimated
ENCODING 8494
SWIDTH 619 0
DWIDTH 5 0
BBX 5 5 0 0
BITMAP
0400
1100
6580
5000
1500
ENDCHAR
STARTCHAR oneeighth
ENCODING 8539
SWIDTH 752 0
DWIDTH 6 0
BBX 6 6 0 0
BITMAP
2040
2140
2150
1960
1190
5250
ENDCHAR
STARTCHAR threeeighths
ENCODING 8540
SWIDTH 812 0
DWIDTH 7 0
BBX 6 6 0 0
BITMAP
1410
1480
1550
5590
08A0
20A0
ENDCHAR
STARTCHAR fiveeighths
ENCODING 8541
SWIDTH 818 0
DWIDTH 7 0
BBX 6 6 0 0
BITMAP
2410
6080
0950
6590
08A0
20A0
ENDCHAR
STARTCHAR seveneighths
ENCODING 8542
SWIDTH 750 0
DWIDTH 6 0
BBX 6 6 0 0
BITMAP
1840
1540
2150
5960
1190
5250
ENDCHAR
STARTCHAR partialdiff
ENCODING 8706
SWIDTH 581 0
DWIDTH 5 0
BBX 5 6 0 0
BITMAP
1900
0200
2A40
5200
9200
6900
ENDCHAR
STARTCHAR Delta
ENCODING 8710
SWIDTH 558 0
DWIDTH 4 0
BBX 4 6 0 0
BITMAP
05
09
16
22
82
EA
ENDCHAR
STARTCHAR product
ENCODING 8719
SWIDTH 741 0
DWIDTH 6 0
BBX 5 8 1 -2
BITMAP
AA40
8140
8140
8140
8140
8140
8140
8140
ENDCHAR
STARTCHAR summation
ENCODING 8721
SWIDTH 630 0
DWIDTH 5 0
BBX 5 8 1 -2
BITMAP
AA00
9000
2000
0800
1800
2000
9000
EA40
ENDCHAR
STARTCHAR minus
ENCODING 8722
SWIDTH 550 0
DWIDTH 4 0
BBX 4 1 0 2
BITMAP
55
ENDCHAR
STARTCHAR radical
ENCODING 8730
SWIDTH 548 0
DWIDTH 4 0
BBX 5 7 0 0
BITMAP
0040
0080
0140
5200
2200
1900
0800
ENDCHAR
STARTCHAR infinity
ENCODING 8734
SWIDTH 707 0
DWIDTH 6 0
BBX 6 3 0 1
BITMAP
6580
5550
1040
ENDCHAR
STARTCHAR integral
ENCODING 8747
SWIDTH 383 0
DWIDTH 3 0
BBX 3 8 0 -2
BITMAP
18
20
20
20
20
20
20
60
ENDCHAR
STARTCHAR approxequal
ENCODING 8776
SWIDTH 550 0
DWIDTH 4 0
BBX 4 3 0 1
BITMAP
5A
14
05
ENDCHAR
STARTCHAR notequal
ENCODING 8800
SWIDTH 550 0
DWIDTH 4 0
BBX 4 4 0 1
BITMAP
05
6A
19
25
ENDCHAR
STARTCHAR lessequal
ENCODING 8804
SWIDTH 550 0
DWIDTH 4 0
BBX 4 5 0 0
BITMAP
01
14
64
06
6A
ENDCHAR
STARTCHAR greaterequal
ENCODING 8805
SWIDTH 550 0
DWIDTH 4 0
BBX 4 5 0 0
BITMAP
50
19
06
64
6A
ENDCHAR
STARTCHAR lozenge
ENCODING 9674
SWIDTH 583 0
DWIDTH 5 0
BBX 5 6 0 0
BITMAP
0800
1500
2200
5240
2600
0800
ENDCHAR
STARTCHAR ff
ENCODING 64256
SWIDTH 630 0
DWIDTH 5 0
BBX 7 8 -1 -2
BITMAP
0664
0960
0990
0880
1480
2080
2140
9600
ENDCHAR
STARTCHAR uniFB01
ENCODING 64257
SWIDTH 568 0
DWIDTH 5 0
BBX 6 8 -1 -2
BITMAP
0650
0900
0880
0880
1480
2080
2000
9000
ENDCHAR
STARTCHAR uniFB02
ENCODING 64258
SWIDTH 568 0
DWIDTH 5 0
BBX 6 8 -1 -2
BITMAP
0660
0950
0880
0880
1480
2040
2000
9000
ENDCHAR
STARTCHAR uniFB03
ENCODING 64259
SWIDTH 886 0
DWIDTH 7 0
BBX 8 8 -1 -2
BITMAP
0665
0961
0992
0885
1485
2088
2140
9600
ENDCHAR
STARTCHAR uniFB04
ENCODING 64260
SWIDTH 886 0
DWIDTH 7 0
BBX 8 8 -1 -2
BITMAP
0666
0962
0992
0885
1485
2088
2140
9600
ENDCHAR
STARTCHAR uniFEFF
ENCODING 65279
SWIDTH 0 0
DWIDTH 0 0
BBX 1 1 0 0
BITMAP
00
ENDCHAR
STARTCHAR uniFFFC
ENCODING 65532
SWIDTH 1000 0
DWIDTH 8 0
BBX 8 8 0 -2
BITMAP
9556
4001
5545
6685
5595
4001
4001
5555
ENDCHAR
STARTCHAR uniFFFD
ENCODING 65533
SWIDTH 1000 0
DWIDTH 8 0
BBX 8 7 0 -1
BITMAP
0280
0AA0
2E68
7E7D
2EF8
09A0
0280
ENDCHAR
STARTCHAR .notdef
ENCODING -1
SWIDTH 600 0
DWIDTH 5 0
BBX 4 6 0 0
BITMAP
56
41
41
41
41
56
ENDCHAR
STARTCHAR null
ENCODING -1
SWIDTH 0 0
DWIDTH 0 0
BBX 1 1 0 0
BITMAP
00
ENDCHAR
STARTCHAR nonmarkingreturn
ENCODING -1
SWIDTH 509 0
DWIDTH 4 0
BBX 1 1 0 0
BITMAP
00
ENDCHAR
STARTCHAR I.alt
ENCODING -1
SWIDTH 317 0
DWIDTH 3 0
BBX 3 6 0 0
BITMAP
24
20
20
20
50
A0
ENDCHAR
STARTCHAR Igrave.alt
ENCODING -1
SWIDTH 317 0
DWIDTH 3 0
BBX 3 8 0 0
BITMAP
10
14
24
20
20
20
50
A0
ENDCHAR
STARTCHAR Iacute.alt
ENCODING -1
SWIDTH 317 0
DWIDTH 3 0
BBX 3 8 0 0
BITMAP
04
04
24
20
20
20
50
A0
ENDCHAR
STARTCHAR Icircumflex.alt
ENCODING -1
SWIDTH 317 0
DWIDTH 3 0
BBX 3 8 0 0
BITMAP
04
14
24
20
20
20
50
A0
ENDCHAR
STARTCHAR Idieresis.alt
ENCODING -1
SWIDTH 317 0
DWIDTH 3 0
BBX 3 7 0 0
BITMAP
14
24
20
20
20
50
A0
ENDCHAR
STARTCHAR Itilde.alt
ENCODING -1
SWIDTH 317 0
DWIDTH 3 0
BBX 4 7 0 0
BITMAP
29
24
20
20
20
50
A0
ENDCHAR
STARTCHAR Imacron.alt
ENCODING -1
SWIDTH 317 0
DWIDTH 3 0
BBX 3 7 0 0
BITMAP
28
24
20
20
20
50
A0
ENDCHAR
STARTCHAR Ibreve.alt
ENCODING -1
SWIDTH 317 0
DWIDTH 3 0
BBX 3 7 0 0
BITMAP
18
24
20
20
20
50
A0
ENDCHAR
STARTCHAR Iogonek.alt
ENCODING -1
SWIDTH 317 0
DWIDTH 3 0
BBX 3 8 0 -2
BITMAP
24
20
20
20
50
A0
40
40
ENDCHAR
STARTCHAR Idotaccent.alt
ENCODING -1
SWIDTH 317 0
DWIDTH 3 0
BBX 3 7 0 0
BITMAP
04
24
20
20
20
50
A0
ENDCHAR
STARTCHAR IJ.alt
ENCODING -1
SWIDTH 583 0
DWIDTH 5 0
BBX 5 8 0 -2
BITMAP
2440
2140
2140
2200
5200
A200
0500
1400
ENDCHAR
STARTCHAR Iotatonos.alt
ENCODING -1
SWIDTH 439 0
DWIDTH 4 0
BBX 4 6 0 0
BITMAP
69
48
08
08
14
28
ENDCHAR
STARTCHAR Iota.alt
ENCODING -1
SWIDTH 317 0
DWIDTH 3 0
BBX 3 6 0 0
BITMAP
24
20
20
20
50
A0
ENDCHAR
STARTCHAR Iotadieresis.alt
ENCODING -1
SWIDTH 317 0
DWIDTH 3 0
BBX 3 7 0 0
BITMAP
14
24
20
20
20
50
A0
ENDCHAR
STARTCHAR afii10055.alt
ENCODING -1
SWIDTH 317 0
DWIDTH 3 0
BBX 3 6 0 0
BITMAP
24
20
20
20
50
A0
ENDCHAR
STARTCHAR afii10056.alt
ENCODING -1
SWIDTH 317 0
DWIDTH 3 0
BBX 3 7 0 0
BITMAP
14
24
20
20
20
50
A0
ENDCHAR
STARTCHAR cyrillicbreve
ENCODING -1
SWIDTH 562 0
DWIDTH 5 0
BBX 3 1 1 5
BITMAP
98
ENDCHAR
STARTCHAR caroncommaaccent
ENCODING -1
SWIDTH 477 0
DWIDTH 4 0
BBX 1 1 2 5
BITMAP
80
ENDCHAR
STARTCHAR commaaccent
ENCODING -1
SWIDTH 477 0
DWIDTH 4 0
BBX 2 2 0 -2
BITMAP
10
50
ENDCHAR
STARTCHAR commaaccentrotate
ENCODING -1
SWIDTH 477 0
DWIDTH 4 0
BBX 1 1 2 5
BITMAP
80
ENDCHAR
STARTCHAR dasiaoxia
ENCODING -1
SWIDTH 418 0
DWIDTH 3 0
BBX 3 2 1 4
BITMAP
54
50
ENDCHAR
STARTCHAR uni04C0.alt
ENCODING -1
SWIDTH 317 0
DWIDTH 3 0
BBX 3 6 0 0
BITMAP
24
20
20
20
50
A0
ENDCHAR
STARTCHAR uni04CF.alt
ENCODING -1
SWIDTH 317 0
DWIDTH 3 0
BBX 3 6 0 0
BITMAP
24
20
20
20
50
A0
ENDCHAR
STARTCHAR uni1EC8.alt
ENCODING -1
SWIDTH 317 0
DWIDTH 3 0
BBX 3 8 0 0
BITMAP
08
04
24
20
20
20
50
A0
ENDCHAR
STARTCHAR uni1ECA.alt
ENCODING -1
SWIDTH 317 0
DWIDTH 3 0
BBX 3 8 0 -2
BITMAP
24
20
20
20
50
A0
40
40
ENDCHAR
STARTCHAR circumflexacutecomb
ENCODING -1
SWIDTH 0 0
DWIDTH 0 0
BBX 3 2 -3 5
BITMAP
04
64
ENDCHAR
STARTCHAR circumflexgravecomb
ENCODING -1
SWIDTH 0 0
DWIDTH 0 0
BBX 3 2 -4 5
BITMAP
40
28
ENDCHAR
STARTCHAR circumflexhookcomb
ENCODING -1
SWIDTH 0 0
DWIDTH 0 0
BBX 3 2 -3 5
BITMAP
04
64
ENDCHAR
STARTCHAR circumflextildecomb
ENCODING -1
SWIDTH 0 0
DWIDTH 0 0
BBX 3 2 -3 5
BITMAP
64
60
ENDCHAR
STARTCHAR breveacutecomb
ENCODING -1
SWIDTH 0 0
DWIDTH 0 0
BBX 2 2 -3 5
BITMAP
10
A0
ENDCHAR
STARTCHAR brevegravecomb
ENCODING -1
SWIDTH 0 0
DWIDTH 0 0
BBX 2 2 -3 5
BITMAP
40
A0
ENDCHAR
STARTCHAR brevehookcomb
ENCODING -1
SWIDTH 0 0
DWIDTH 0 0
BBX 2 2 -3 5
BITMAP
20
A0
ENDCHAR
STARTCHAR brevetildecomb
ENCODING -1
SWIDTH 0 0
DWIDTH 0 0
BBX 3 2 -3 5
BITMAP
64
A0
ENDCHAR
STARTCHAR cyrillichookleft
ENCODING -1
SWIDTH 205 0
DWIDTH 2 0
BBX 2 2 -1 -2
BITMAP
20
50
ENDCHAR
STARTCHAR one.pnum
ENCODING -1
SWIDTH 375 0
DWIDTH 3 0
BBX 3 6 0 0
BITMAP
18
68
14
14
20
20
ENDCHAR
STARTCHAR zero.os
ENCODING -1
SWIDTH 554 0
DWIDTH 4 0
BBX 4 5 0 0
BITMAP
04
22
52
82
69
ENDCHAR
STARTCHAR one.os
ENCODING -1
SWIDTH 358 0
DWIDTH 3 0
BBX 3 4 0 0
BITMAP
64
20
20
20
ENDCHAR
STARTCHAR two.os
ENCODING -1
SWIDTH 483 0
DWIDTH 4 0
BBX 4 5 0 0
BITMAP
14
15
05
24
E8
ENDCHAR
STARTCHAR three.os
ENCODING -1
SWIDTH 483 0
DWIDTH 4 0
BBX 5 7 -1 -2
BITMAP
0500
1540
0140
0900
0200
5600
1400
ENDCHAR
STARTCHAR four.os
ENCODING -1
SWIDTH 540 0
DWIDTH 4 0
BBX 4 7 0 -2
BITMAP
01
0A
15
55
A9
08
04
ENDCHAR
STARTCHAR five.os
ENCODING -1
SWIDTH 503 0
DWIDTH 4 0
BBX 4 7 0 -2
BITMAP
15
25
50
59
05
58
50
ENDCHAR
STARTCHAR six.os
ENCODING -1
SWIDTH 540 0
DWIDTH 4 0
BBX 4 6 0 0
BITMAP
0A
20
69
52
82
69
ENDCHAR
STARTCHAR seven.os
ENCODING -1
SWIDTH 474 0
DWIDTH 4 0
BBX 4 7 0 -2
BITMAP
55
55
08
14
20
50
40
ENDCHAR
STARTCHAR eight.os
ENCODING -1
SWIDTH 534 0
DWIDTH 4 0
BBX 4 6 0 0
BITMAP
1A
22
26
69
82
69
ENDCHAR
STARTCHAR nine.os
ENCODING -1
SWIDTH 527 0
DWIDTH 4 0
BBX 4 7 0 -2
BITMAP
14
56
82
66
05
58
50
ENDCHAR
STARTCHAR g.alt
ENCODING -1
SWIDTH 577 0
DWIDTH 5 0
BBX 5 7 0 -2
BITMAP
0400
2640
5200
8200
6A00
0500
6800
ENDCHAR
STARTCHAR gcircumflex.alt
ENCODING -1
SWIDTH 577 0
DWIDTH 5 0
BBX 5 8 0 -2
BITMAP
0A00
0400
2640
5200
8200
6A00
0500
6800
ENDCHAR
STARTCHAR gbreve.alt
ENCODING -1
SWIDTH 577 0
DWIDTH 5 0
BBX 5 8 0 -2
BITMAP
0A00
0400
2640
5200
8200
6A00
0500
6800
ENDCHAR
STARTCHAR gdot.alt
ENCODING -1
SWIDTH 577 0
DWIDTH 5 0
BBX 5 8 0 -2
BITMAP
0400
0400
2640
5200
8200
6A00
0500
6800
ENDCHAR
STARTCHAR gcommaaccent.alt
ENCODING -1
SWIDTH 577 0
DWIDTH 5 0
BBX 5 8 0 -2
BITMAP
0500
0400
2640
5200
8200
6A00
0500
6800
ENDCHAR
ENDFONT
